%
M48
M72
T01C0.01969
T02C0.03200
T03C0.03937
T04C0.04000
%
T01
X58493Y189256
T02
X101800Y192524
X101800Y202524
X101800Y212524
X101800Y222524
X101800Y232524
X101800Y242524
X101800Y252524
X131800Y252524
X131800Y242524
X131800Y232524
X131800Y222524
X131800Y212524
X131800Y202524
X131800Y192524
X131800Y182524
X101800Y182524
T03
X76800Y167524
X66800Y167524
X66800Y217524
X76800Y217524
X76800Y262524
X66800Y262524
X151800Y197524
X161800Y197524
X191800Y202524
X191800Y212524
X191800Y192524
X191800Y182524
X191800Y172524
X186800Y152524
X186800Y117524
X176800Y117524
X166800Y117524
X156800Y117524
X146800Y152524
X121800Y152524
X111800Y152524
X111800Y117524
X121800Y117524
X76800Y117524
X66800Y117524
X191800Y237524
X191800Y247524
X191800Y257524
X191800Y267524
X191800Y277524
T04
X31800Y102524
X31800Y112524
X31800Y122524
X31800Y132524
X31800Y142524
X31800Y152524
X31800Y162524
X31800Y172524
X31800Y182524
X31800Y192524
X31800Y207524
X31800Y217524
X31800Y227524
X31800Y237524
X31800Y247524
X31800Y257524
X31800Y267524
X31800Y277524
X221800Y277524
X221800Y267524
X221800Y257524
X221800Y247524
X221800Y237524
X221800Y227524
X221800Y207524
X221800Y197524
X221800Y187524
X221800Y177524
X221800Y167524
X221800Y157524
X221800Y147524
X221800Y137524
M30
