G75*
%MOIN*%
%OFA0B0*%
%FSLAX25Y25*%
%IPPOS*%
%LPD*%
%AMOC8*
5,1,8,0,0,1.08239X$1,22.5*
%
%ADD10C,0.07800*%
%ADD11C,0.04775*%
%ADD12C,0.07400*%
%ADD13C,0.05512*%
%ADD14R,0.06299X0.07098*%
%ADD15C,0.00787*%
%ADD16C,0.01600*%
%ADD17C,0.03543*%
D10*
X0146800Y0152524D03*
X0186800Y0152524D03*
D11*
X0134187Y0182524D02*
X0129413Y0182524D01*
X0129413Y0192524D02*
X0134187Y0192524D01*
X0134187Y0202524D02*
X0129413Y0202524D01*
X0129413Y0212524D02*
X0134187Y0212524D01*
X0134187Y0222524D02*
X0129413Y0222524D01*
X0129413Y0232524D02*
X0134187Y0232524D01*
X0134187Y0242524D02*
X0129413Y0242524D01*
X0129413Y0252524D02*
X0134187Y0252524D01*
X0104187Y0252524D02*
X0099413Y0252524D01*
X0099413Y0242524D02*
X0104187Y0242524D01*
X0104187Y0232524D02*
X0099413Y0232524D01*
X0099413Y0222524D02*
X0104187Y0222524D01*
X0104187Y0212524D02*
X0099413Y0212524D01*
X0099413Y0202524D02*
X0104187Y0202524D01*
X0104187Y0192524D02*
X0099413Y0192524D01*
X0099413Y0182524D02*
X0104187Y0182524D01*
D12*
X0031800Y0182524D03*
X0031800Y0192524D03*
X0031800Y0207524D03*
X0031800Y0217524D03*
X0031800Y0227524D03*
X0031800Y0237524D03*
X0031800Y0247524D03*
X0031800Y0257524D03*
X0031800Y0267524D03*
X0031800Y0277524D03*
X0031800Y0172524D03*
X0031800Y0162524D03*
X0031800Y0152524D03*
X0031800Y0142524D03*
X0031800Y0132524D03*
X0031800Y0122524D03*
X0031800Y0112524D03*
X0031800Y0102524D03*
X0221800Y0137524D03*
X0221800Y0147524D03*
X0221800Y0157524D03*
X0221800Y0167524D03*
X0221800Y0177524D03*
X0221800Y0187524D03*
X0221800Y0197524D03*
X0221800Y0207524D03*
X0221800Y0227524D03*
X0221800Y0237524D03*
X0221800Y0247524D03*
X0221800Y0257524D03*
X0221800Y0267524D03*
X0221800Y0277524D03*
D13*
X0194556Y0277524D02*
X0189044Y0277524D01*
X0189044Y0267524D02*
X0194556Y0267524D01*
X0194556Y0257524D02*
X0189044Y0257524D01*
X0189044Y0247524D02*
X0194556Y0247524D01*
X0194556Y0237524D02*
X0189044Y0237524D01*
X0189044Y0212524D02*
X0194556Y0212524D01*
X0194556Y0202524D02*
X0189044Y0202524D01*
X0189044Y0192524D02*
X0194556Y0192524D01*
X0194556Y0182524D02*
X0189044Y0182524D01*
X0189044Y0172524D02*
X0194556Y0172524D01*
X0161800Y0194768D02*
X0161800Y0200280D01*
X0151800Y0200280D02*
X0151800Y0194768D01*
X0121800Y0155280D02*
X0121800Y0149768D01*
X0111800Y0149768D02*
X0111800Y0155280D01*
X0111800Y0120280D02*
X0111800Y0114768D01*
X0121800Y0114768D02*
X0121800Y0120280D01*
X0156800Y0120280D02*
X0156800Y0114768D01*
X0166800Y0114768D02*
X0166800Y0120280D01*
X0176800Y0120280D02*
X0176800Y0114768D01*
X0186800Y0114768D02*
X0186800Y0120280D01*
X0076800Y0120280D02*
X0076800Y0114768D01*
X0066800Y0114768D02*
X0066800Y0120280D01*
X0066800Y0164768D02*
X0066800Y0170280D01*
X0076800Y0170280D02*
X0076800Y0164768D01*
X0076800Y0214768D02*
X0076800Y0220280D01*
X0066800Y0220280D02*
X0066800Y0214768D01*
X0066800Y0259768D02*
X0066800Y0265280D01*
X0076800Y0265280D02*
X0076800Y0259768D01*
D14*
X0151202Y0267524D03*
X0162398Y0267524D03*
X0162398Y0282524D03*
X0151202Y0282524D03*
X0151202Y0247524D03*
X0162398Y0247524D03*
X0162398Y0227524D03*
X0151202Y0227524D03*
D15*
X0151406Y0227839D01*
X0167154Y0243587D01*
X0167154Y0262484D01*
X0162430Y0267209D01*
X0162398Y0267524D01*
X0157706Y0269571D02*
X0157706Y0251461D01*
X0161643Y0247524D01*
X0162398Y0247524D01*
X0151202Y0247524D02*
X0144320Y0247524D01*
X0133296Y0236500D01*
X0127784Y0236500D01*
X0109674Y0218390D01*
X0109674Y0190043D01*
X0101800Y0182169D01*
X0101800Y0182524D01*
X0101800Y0182169D02*
X0087627Y0167996D01*
X0077391Y0167996D01*
X0076800Y0167524D01*
X0065580Y0186106D02*
X0032509Y0153035D01*
X0031800Y0152524D01*
X0034083Y0147524D02*
X0029359Y0147524D01*
X0026209Y0150673D01*
X0026209Y0194768D01*
X0037233Y0205791D01*
X0037233Y0232563D01*
X0032509Y0237287D01*
X0031800Y0237524D01*
X0031800Y0217524D02*
X0031721Y0216815D01*
X0024635Y0209728D01*
X0024635Y0122327D01*
X0029359Y0117602D01*
X0034083Y0117602D01*
X0041170Y0124689D01*
X0078178Y0124689D01*
X0085265Y0117602D01*
X0111249Y0117602D01*
X0111800Y0117524D01*
X0138808Y0145161D02*
X0036446Y0145161D01*
X0034083Y0147524D01*
X0031800Y0172524D02*
X0032509Y0172720D01*
X0046682Y0172720D01*
X0066367Y0192406D01*
X0101800Y0192406D01*
X0101800Y0192524D01*
X0108099Y0190831D02*
X0103375Y0186106D01*
X0065580Y0186106D01*
X0058493Y0189256D02*
X0058493Y0230988D01*
X0032509Y0256972D01*
X0031800Y0257524D01*
X0046682Y0263272D02*
X0032509Y0277445D01*
X0031800Y0277524D01*
X0046682Y0263272D02*
X0066367Y0263272D01*
X0066800Y0262524D01*
X0081328Y0231776D02*
X0067154Y0217602D01*
X0066800Y0217524D01*
X0076800Y0217524D02*
X0077391Y0216815D01*
X0091564Y0202642D01*
X0101800Y0202642D01*
X0101800Y0202524D01*
X0108099Y0190831D02*
X0108099Y0226264D01*
X0128572Y0246736D01*
X0134083Y0246736D01*
X0150619Y0263272D01*
X0150619Y0267209D01*
X0151202Y0267524D01*
X0157706Y0269571D02*
X0151406Y0275870D01*
X0151406Y0282169D01*
X0151202Y0282524D01*
X0131721Y0253035D02*
X0131800Y0252524D01*
X0131721Y0253035D02*
X0101800Y0253035D01*
X0101800Y0252524D01*
X0101800Y0232524D02*
X0101800Y0231776D01*
X0081328Y0231776D01*
X0131800Y0232524D02*
X0132509Y0231776D01*
X0132509Y0229413D01*
X0151406Y0210516D01*
X0151406Y0197917D01*
X0151800Y0197524D01*
X0156918Y0182169D02*
X0186052Y0153035D01*
X0186800Y0152524D01*
X0191800Y0172524D02*
X0192351Y0172720D01*
X0192351Y0174295D01*
X0216761Y0198705D01*
X0216761Y0222327D01*
X0221485Y0227051D01*
X0221800Y0227524D01*
X0215186Y0230988D02*
X0221485Y0237287D01*
X0221800Y0237524D01*
X0215186Y0230988D02*
X0215186Y0207366D01*
X0192351Y0184531D01*
X0192351Y0182957D01*
X0191800Y0182524D01*
X0191800Y0192524D02*
X0192351Y0193193D01*
X0203375Y0204217D01*
X0203375Y0229413D01*
X0221485Y0247524D01*
X0221800Y0247524D01*
X0221485Y0256972D02*
X0221800Y0257524D01*
X0221485Y0256972D02*
X0202587Y0238075D01*
X0192351Y0238075D01*
X0191800Y0237524D01*
X0191800Y0247524D02*
X0201800Y0247524D01*
X0221800Y0267524D01*
X0221485Y0277445D02*
X0221800Y0277524D01*
X0221485Y0277445D02*
X0201800Y0257760D01*
X0192351Y0257760D01*
X0191800Y0257524D01*
X0132509Y0182169D02*
X0131800Y0182524D01*
X0132509Y0182169D02*
X0156918Y0182169D01*
X0146682Y0153035D02*
X0146800Y0152524D01*
X0146682Y0153035D02*
X0122272Y0153035D01*
X0121800Y0152524D01*
X0138808Y0145161D02*
X0166367Y0117602D01*
X0166800Y0117524D01*
X0076800Y0117524D02*
X0076603Y0116815D01*
X0075028Y0116815D01*
X0060855Y0102642D01*
X0032509Y0102642D01*
X0031800Y0102524D01*
X0031800Y0112524D02*
X0032509Y0112878D01*
X0036446Y0116815D01*
X0066367Y0116815D01*
X0066800Y0117524D01*
D16*
X0024581Y0119579D02*
X0024581Y0075305D01*
X0229019Y0075305D01*
X0229019Y0284743D01*
X0221247Y0284743D01*
X0220225Y0285166D01*
X0219442Y0285948D01*
X0210648Y0294743D01*
X0082952Y0294743D01*
X0073375Y0285166D01*
X0072353Y0284743D01*
X0027952Y0284743D01*
X0024581Y0281372D01*
X0024581Y0212476D01*
X0027117Y0215012D01*
X0026513Y0216472D01*
X0026513Y0218575D01*
X0027318Y0220519D01*
X0028805Y0222006D01*
X0030054Y0222524D01*
X0028805Y0223041D01*
X0027318Y0224529D01*
X0026513Y0226472D01*
X0026513Y0228575D01*
X0027318Y0230519D01*
X0028805Y0232006D01*
X0030054Y0232524D01*
X0028805Y0233041D01*
X0027318Y0234529D01*
X0026513Y0236472D01*
X0026513Y0238575D01*
X0027318Y0240519D01*
X0028805Y0242006D01*
X0030054Y0242524D01*
X0028805Y0243041D01*
X0027318Y0244529D01*
X0026513Y0246472D01*
X0026513Y0248575D01*
X0027318Y0250519D01*
X0028805Y0252006D01*
X0030054Y0252524D01*
X0028805Y0253041D01*
X0027318Y0254529D01*
X0026513Y0256472D01*
X0026513Y0258575D01*
X0027318Y0260519D01*
X0028805Y0262006D01*
X0030054Y0262524D01*
X0028805Y0263041D01*
X0027318Y0264529D01*
X0026513Y0266472D01*
X0026513Y0268575D01*
X0027318Y0270519D01*
X0028805Y0272006D01*
X0030054Y0272524D01*
X0028805Y0273041D01*
X0027318Y0274529D01*
X0026513Y0276472D01*
X0026513Y0278575D01*
X0027318Y0280519D01*
X0028805Y0282006D01*
X0030748Y0282811D01*
X0032852Y0282811D01*
X0034795Y0282006D01*
X0036282Y0280519D01*
X0037087Y0278575D01*
X0037087Y0276472D01*
X0036852Y0275903D01*
X0047502Y0265253D01*
X0062457Y0265253D01*
X0062457Y0266143D01*
X0063118Y0267740D01*
X0064340Y0268962D01*
X0065936Y0269623D01*
X0067664Y0269623D01*
X0069260Y0268962D01*
X0070482Y0267740D01*
X0071143Y0266143D01*
X0071143Y0258904D01*
X0070482Y0257307D01*
X0069260Y0256086D01*
X0067664Y0255424D01*
X0065936Y0255424D01*
X0064340Y0256086D01*
X0063118Y0257307D01*
X0062457Y0258904D01*
X0062457Y0261291D01*
X0045861Y0261291D01*
X0034311Y0272841D01*
X0033546Y0272524D01*
X0034795Y0272006D01*
X0036282Y0270519D01*
X0037087Y0268575D01*
X0037087Y0266472D01*
X0036282Y0264529D01*
X0034795Y0263041D01*
X0033546Y0262524D01*
X0034795Y0262006D01*
X0036282Y0260519D01*
X0037087Y0258575D01*
X0037087Y0256472D01*
X0036714Y0255569D01*
X0060474Y0231809D01*
X0060474Y0192025D01*
X0061341Y0191159D01*
X0061627Y0190467D01*
X0065546Y0194387D01*
X0095882Y0194387D01*
X0096043Y0194775D01*
X0097161Y0195893D01*
X0098622Y0196498D01*
X0104978Y0196498D01*
X0106118Y0196026D01*
X0106118Y0199021D01*
X0104978Y0198549D01*
X0098622Y0198549D01*
X0097161Y0199154D01*
X0096043Y0200272D01*
X0095882Y0200661D01*
X0090743Y0200661D01*
X0079789Y0211615D01*
X0079260Y0211086D01*
X0077664Y0210424D01*
X0075936Y0210424D01*
X0074340Y0211086D01*
X0073118Y0212307D01*
X0072457Y0213904D01*
X0072457Y0220103D01*
X0071143Y0218790D01*
X0071143Y0213904D01*
X0070482Y0212307D01*
X0069260Y0211086D01*
X0067664Y0210424D01*
X0065936Y0210424D01*
X0064340Y0211086D01*
X0063118Y0212307D01*
X0062457Y0213904D01*
X0062457Y0221143D01*
X0063118Y0222740D01*
X0064340Y0223962D01*
X0065936Y0224623D01*
X0067664Y0224623D01*
X0069260Y0223962D01*
X0069986Y0223236D01*
X0080507Y0233757D01*
X0095621Y0233757D01*
X0096043Y0234775D01*
X0097161Y0235893D01*
X0098622Y0236498D01*
X0104978Y0236498D01*
X0106439Y0235893D01*
X0107557Y0234775D01*
X0108162Y0233314D01*
X0108162Y0231733D01*
X0107557Y0230272D01*
X0106439Y0229154D01*
X0104978Y0228549D01*
X0098622Y0228549D01*
X0097161Y0229154D01*
X0096521Y0229794D01*
X0082148Y0229794D01*
X0076976Y0224623D01*
X0077664Y0224623D01*
X0079260Y0223962D01*
X0080482Y0222740D01*
X0081143Y0221143D01*
X0081143Y0215864D01*
X0092384Y0204623D01*
X0095980Y0204623D01*
X0096043Y0204775D01*
X0097161Y0205893D01*
X0098622Y0206498D01*
X0104978Y0206498D01*
X0106118Y0206026D01*
X0106118Y0209033D01*
X0106070Y0209001D01*
X0105347Y0208702D01*
X0104579Y0208549D01*
X0101800Y0208549D01*
X0101800Y0212523D01*
X0101800Y0212523D01*
X0101800Y0208549D01*
X0099021Y0208549D01*
X0098253Y0208702D01*
X0097530Y0209001D01*
X0096879Y0209436D01*
X0096325Y0209990D01*
X0095890Y0210641D01*
X0095591Y0211364D01*
X0095438Y0212132D01*
X0095438Y0212524D01*
X0101800Y0212524D01*
X0101800Y0216498D01*
X0099021Y0216498D01*
X0098253Y0216346D01*
X0097530Y0216046D01*
X0096879Y0215611D01*
X0096325Y0215057D01*
X0095890Y0214406D01*
X0095591Y0213683D01*
X0095438Y0212915D01*
X0095438Y0212524D01*
X0101800Y0212524D01*
X0101800Y0212524D01*
X0101800Y0216498D01*
X0104579Y0216498D01*
X0105347Y0216346D01*
X0106070Y0216046D01*
X0106118Y0216014D01*
X0106118Y0219033D01*
X0106070Y0219001D01*
X0105347Y0218702D01*
X0104579Y0218549D01*
X0101800Y0218549D01*
X0101800Y0222523D01*
X0101800Y0222523D01*
X0101800Y0218549D01*
X0099021Y0218549D01*
X0098253Y0218702D01*
X0097530Y0219001D01*
X0096879Y0219436D01*
X0096325Y0219990D01*
X0095890Y0220641D01*
X0095591Y0221364D01*
X0095438Y0222132D01*
X0095438Y0222524D01*
X0101800Y0222524D01*
X0101800Y0226498D01*
X0099021Y0226498D01*
X0098253Y0226346D01*
X0097530Y0226046D01*
X0096879Y0225611D01*
X0096325Y0225057D01*
X0095890Y0224406D01*
X0095591Y0223683D01*
X0095438Y0222915D01*
X0095438Y0222524D01*
X0101800Y0222524D01*
X0101800Y0222524D01*
X0101800Y0226498D01*
X0104579Y0226498D01*
X0105347Y0226346D01*
X0106070Y0226046D01*
X0106118Y0226014D01*
X0106118Y0227084D01*
X0107279Y0228245D01*
X0127751Y0248717D01*
X0128215Y0248717D01*
X0127161Y0249154D01*
X0126043Y0250272D01*
X0125719Y0251054D01*
X0107881Y0251054D01*
X0107557Y0250272D01*
X0106439Y0249154D01*
X0104978Y0248549D01*
X0098622Y0248549D01*
X0097161Y0249154D01*
X0096043Y0250272D01*
X0095438Y0251733D01*
X0095438Y0253314D01*
X0096043Y0254775D01*
X0097161Y0255893D01*
X0098622Y0256498D01*
X0104978Y0256498D01*
X0106439Y0255893D01*
X0107316Y0255017D01*
X0126284Y0255017D01*
X0127161Y0255893D01*
X0128622Y0256498D01*
X0134978Y0256498D01*
X0136439Y0255893D01*
X0137557Y0254775D01*
X0138074Y0253528D01*
X0147164Y0262618D01*
X0146465Y0263317D01*
X0146465Y0271730D01*
X0147394Y0272660D01*
X0151814Y0272660D01*
X0149425Y0275049D01*
X0149425Y0277387D01*
X0147394Y0277387D01*
X0146465Y0278317D01*
X0146465Y0286730D01*
X0147394Y0287660D01*
X0155009Y0287660D01*
X0155939Y0286730D01*
X0155939Y0278317D01*
X0155009Y0277387D01*
X0153387Y0277387D01*
X0153387Y0276691D01*
X0158005Y0272073D01*
X0158591Y0272660D01*
X0166206Y0272660D01*
X0167135Y0271730D01*
X0167135Y0265305D01*
X0169135Y0263305D01*
X0169135Y0242766D01*
X0167975Y0241606D01*
X0159026Y0232656D01*
X0159040Y0232660D01*
X0161624Y0232660D01*
X0161624Y0228298D01*
X0161624Y0226749D01*
X0163173Y0226749D01*
X0163173Y0222387D01*
X0165757Y0222387D01*
X0166161Y0222495D01*
X0166523Y0222704D01*
X0166818Y0223000D01*
X0167027Y0223362D01*
X0167135Y0223765D01*
X0167135Y0226749D01*
X0163173Y0226749D01*
X0163173Y0228298D01*
X0167135Y0228298D01*
X0167135Y0231282D01*
X0167027Y0231686D01*
X0166818Y0232048D01*
X0166523Y0232343D01*
X0166161Y0232552D01*
X0165757Y0232660D01*
X0163173Y0232660D01*
X0163173Y0228298D01*
X0161624Y0228298D01*
X0157661Y0228298D01*
X0157661Y0231282D01*
X0157665Y0231296D01*
X0155939Y0229569D01*
X0155939Y0223317D01*
X0155009Y0222387D01*
X0147394Y0222387D01*
X0146465Y0223317D01*
X0146465Y0231730D01*
X0147394Y0232660D01*
X0153426Y0232660D01*
X0163153Y0242387D01*
X0158591Y0242387D01*
X0157661Y0243317D01*
X0157661Y0248703D01*
X0155939Y0250426D01*
X0155939Y0243317D01*
X0155009Y0242387D01*
X0147394Y0242387D01*
X0146465Y0243317D01*
X0146465Y0245543D01*
X0145140Y0245543D01*
X0135769Y0236171D01*
X0136439Y0235893D01*
X0137557Y0234775D01*
X0138162Y0233314D01*
X0138162Y0231733D01*
X0137557Y0230272D01*
X0136439Y0229154D01*
X0135824Y0228899D01*
X0152227Y0212497D01*
X0153387Y0211336D01*
X0153387Y0204323D01*
X0154260Y0203962D01*
X0155482Y0202740D01*
X0156143Y0201143D01*
X0156143Y0193904D01*
X0155482Y0192307D01*
X0154260Y0191086D01*
X0152664Y0190424D01*
X0150936Y0190424D01*
X0149340Y0191086D01*
X0148118Y0192307D01*
X0147457Y0193904D01*
X0147457Y0201143D01*
X0148118Y0202740D01*
X0149340Y0203962D01*
X0149425Y0203997D01*
X0149425Y0209695D01*
X0137935Y0221185D01*
X0137710Y0220641D01*
X0137275Y0219990D01*
X0136721Y0219436D01*
X0136070Y0219001D01*
X0135347Y0218702D01*
X0134579Y0218549D01*
X0131800Y0218549D01*
X0131800Y0222523D01*
X0131800Y0222523D01*
X0131800Y0218549D01*
X0129021Y0218549D01*
X0128253Y0218702D01*
X0127530Y0219001D01*
X0126879Y0219436D01*
X0126325Y0219990D01*
X0125890Y0220641D01*
X0125591Y0221364D01*
X0125438Y0222132D01*
X0125438Y0222524D01*
X0131800Y0222524D01*
X0131800Y0226498D01*
X0129021Y0226498D01*
X0128253Y0226346D01*
X0127530Y0226046D01*
X0126879Y0225611D01*
X0126325Y0225057D01*
X0125890Y0224406D01*
X0125591Y0223683D01*
X0125438Y0222915D01*
X0125438Y0222524D01*
X0131800Y0222524D01*
X0131800Y0222524D01*
X0131800Y0226498D01*
X0132622Y0226498D01*
X0130572Y0228549D01*
X0128622Y0228549D01*
X0127161Y0229154D01*
X0126043Y0230272D01*
X0125549Y0231463D01*
X0111655Y0217569D01*
X0111655Y0189223D01*
X0107382Y0184950D01*
X0107557Y0184775D01*
X0108162Y0183314D01*
X0108162Y0181733D01*
X0107557Y0180272D01*
X0106439Y0179154D01*
X0104978Y0178549D01*
X0100981Y0178549D01*
X0088447Y0166015D01*
X0081143Y0166015D01*
X0081143Y0163904D01*
X0080482Y0162307D01*
X0079260Y0161086D01*
X0077664Y0160424D01*
X0075936Y0160424D01*
X0074340Y0161086D01*
X0073118Y0162307D01*
X0072457Y0163904D01*
X0072457Y0171143D01*
X0073118Y0172740D01*
X0074340Y0173962D01*
X0075936Y0174623D01*
X0077664Y0174623D01*
X0079260Y0173962D01*
X0080482Y0172740D01*
X0081143Y0171143D01*
X0081143Y0169977D01*
X0086806Y0169977D01*
X0096572Y0179743D01*
X0096043Y0180272D01*
X0095438Y0181733D01*
X0095438Y0183314D01*
X0095774Y0184125D01*
X0066400Y0184125D01*
X0036725Y0154450D01*
X0037087Y0153575D01*
X0037087Y0151472D01*
X0036282Y0149529D01*
X0035581Y0148827D01*
X0036065Y0148344D01*
X0037266Y0147143D01*
X0108339Y0147143D01*
X0108085Y0147491D01*
X0107775Y0148100D01*
X0107564Y0148751D01*
X0107457Y0149426D01*
X0107457Y0152339D01*
X0111616Y0152339D01*
X0111616Y0152708D01*
X0111616Y0159623D01*
X0111458Y0159623D01*
X0110783Y0159516D01*
X0110133Y0159305D01*
X0109524Y0158994D01*
X0108971Y0158592D01*
X0108487Y0158109D01*
X0108085Y0157556D01*
X0107775Y0156947D01*
X0107564Y0156297D01*
X0107457Y0155621D01*
X0107457Y0152708D01*
X0111616Y0152708D01*
X0111984Y0152708D01*
X0111984Y0159623D01*
X0112142Y0159623D01*
X0112817Y0159516D01*
X0113467Y0159305D01*
X0114076Y0158994D01*
X0114629Y0158592D01*
X0115113Y0158109D01*
X0115515Y0157556D01*
X0115825Y0156947D01*
X0116036Y0156297D01*
X0116143Y0155621D01*
X0116143Y0152708D01*
X0111984Y0152708D01*
X0111984Y0152339D01*
X0116143Y0152339D01*
X0116143Y0149426D01*
X0116036Y0148751D01*
X0115825Y0148100D01*
X0115515Y0147491D01*
X0115261Y0147143D01*
X0118283Y0147143D01*
X0118118Y0147307D01*
X0117457Y0148904D01*
X0117457Y0156143D01*
X0118118Y0157740D01*
X0119340Y0158962D01*
X0120936Y0159623D01*
X0122664Y0159623D01*
X0124260Y0158962D01*
X0125482Y0157740D01*
X0126143Y0156143D01*
X0126143Y0155017D01*
X0141893Y0155017D01*
X0142148Y0155632D01*
X0143692Y0157176D01*
X0145708Y0158011D01*
X0147892Y0158011D01*
X0149908Y0157176D01*
X0151452Y0155632D01*
X0152287Y0153615D01*
X0152287Y0151432D01*
X0151452Y0149415D01*
X0149908Y0147872D01*
X0147892Y0147036D01*
X0145708Y0147036D01*
X0143692Y0147872D01*
X0142148Y0149415D01*
X0141469Y0151054D01*
X0126143Y0151054D01*
X0126143Y0148904D01*
X0125482Y0147307D01*
X0125317Y0147143D01*
X0139628Y0147143D01*
X0140789Y0145982D01*
X0163575Y0123196D01*
X0164340Y0123962D01*
X0165936Y0124623D01*
X0167664Y0124623D01*
X0169260Y0123962D01*
X0170482Y0122740D01*
X0171143Y0121143D01*
X0171143Y0113904D01*
X0170482Y0112307D01*
X0169260Y0111086D01*
X0167664Y0110424D01*
X0165936Y0110424D01*
X0164340Y0111086D01*
X0163118Y0112307D01*
X0162457Y0113904D01*
X0162457Y0118711D01*
X0161143Y0120024D01*
X0161143Y0113904D01*
X0160482Y0112307D01*
X0159260Y0111086D01*
X0157664Y0110424D01*
X0155936Y0110424D01*
X0154340Y0111086D01*
X0153118Y0112307D01*
X0152457Y0113904D01*
X0152457Y0121143D01*
X0153118Y0122740D01*
X0154340Y0123962D01*
X0155936Y0124623D01*
X0156545Y0124623D01*
X0137987Y0143180D01*
X0037087Y0143180D01*
X0037087Y0141472D01*
X0036282Y0139529D01*
X0034795Y0138041D01*
X0033535Y0137519D01*
X0033830Y0137424D01*
X0034571Y0137046D01*
X0035245Y0136557D01*
X0035833Y0135968D01*
X0036322Y0135295D01*
X0036700Y0134553D01*
X0036957Y0133762D01*
X0037087Y0132940D01*
X0037087Y0132724D01*
X0032000Y0132724D01*
X0032000Y0132324D01*
X0037087Y0132324D01*
X0037087Y0132107D01*
X0036957Y0131285D01*
X0036700Y0130494D01*
X0036322Y0129752D01*
X0035833Y0129079D01*
X0035245Y0128491D01*
X0034571Y0128001D01*
X0033830Y0127624D01*
X0033535Y0127528D01*
X0034795Y0127006D01*
X0036282Y0125519D01*
X0037087Y0123575D01*
X0037087Y0123408D01*
X0040349Y0126670D01*
X0078999Y0126670D01*
X0080159Y0125510D01*
X0086085Y0119583D01*
X0107457Y0119583D01*
X0107457Y0121143D01*
X0108118Y0122740D01*
X0109340Y0123962D01*
X0110936Y0124623D01*
X0112664Y0124623D01*
X0114260Y0123962D01*
X0115482Y0122740D01*
X0116143Y0121143D01*
X0116143Y0113904D01*
X0115482Y0112307D01*
X0114260Y0111086D01*
X0112664Y0110424D01*
X0110936Y0110424D01*
X0109340Y0111086D01*
X0108118Y0112307D01*
X0107457Y0113904D01*
X0107457Y0115621D01*
X0084444Y0115621D01*
X0081143Y0118922D01*
X0081143Y0113904D01*
X0080482Y0112307D01*
X0079260Y0111086D01*
X0077664Y0110424D01*
X0075936Y0110424D01*
X0074340Y0111086D01*
X0073220Y0112205D01*
X0062836Y0101821D01*
X0061676Y0100661D01*
X0036751Y0100661D01*
X0036282Y0099529D01*
X0034795Y0098041D01*
X0032852Y0097236D01*
X0030748Y0097236D01*
X0028805Y0098041D01*
X0027318Y0099529D01*
X0026513Y0101472D01*
X0026513Y0103575D01*
X0027318Y0105519D01*
X0028805Y0107006D01*
X0030054Y0107524D01*
X0028805Y0108041D01*
X0027318Y0109529D01*
X0026513Y0111472D01*
X0026513Y0113575D01*
X0027318Y0115519D01*
X0027979Y0116180D01*
X0024581Y0119579D01*
X0024581Y0119457D02*
X0024703Y0119457D01*
X0024581Y0117858D02*
X0026302Y0117858D01*
X0027900Y0116260D02*
X0024581Y0116260D01*
X0024581Y0114661D02*
X0026962Y0114661D01*
X0026513Y0113063D02*
X0024581Y0113063D01*
X0024581Y0111464D02*
X0026516Y0111464D01*
X0027178Y0109866D02*
X0024581Y0109866D01*
X0024581Y0108267D02*
X0028579Y0108267D01*
X0028467Y0106669D02*
X0024581Y0106669D01*
X0024581Y0105070D02*
X0027132Y0105070D01*
X0026513Y0103472D02*
X0024581Y0103472D01*
X0024581Y0101873D02*
X0026513Y0101873D01*
X0027009Y0100274D02*
X0024581Y0100274D01*
X0024581Y0098676D02*
X0028170Y0098676D01*
X0024581Y0097077D02*
X0229019Y0097077D01*
X0229019Y0095479D02*
X0024581Y0095479D01*
X0024581Y0093880D02*
X0229019Y0093880D01*
X0229019Y0092282D02*
X0024581Y0092282D01*
X0024581Y0090683D02*
X0229019Y0090683D01*
X0229019Y0089085D02*
X0024581Y0089085D01*
X0024581Y0087486D02*
X0229019Y0087486D01*
X0229019Y0085888D02*
X0024581Y0085888D01*
X0024581Y0084289D02*
X0229019Y0084289D01*
X0229019Y0082691D02*
X0024581Y0082691D01*
X0024581Y0081092D02*
X0229019Y0081092D01*
X0229019Y0079494D02*
X0024581Y0079494D01*
X0024581Y0077895D02*
X0229019Y0077895D01*
X0229019Y0076297D02*
X0024581Y0076297D01*
X0035430Y0098676D02*
X0229019Y0098676D01*
X0229019Y0100274D02*
X0036591Y0100274D01*
X0036807Y0124252D02*
X0037932Y0124252D01*
X0039530Y0125851D02*
X0035950Y0125851D01*
X0033725Y0127449D02*
X0153718Y0127449D01*
X0152120Y0129048D02*
X0035802Y0129048D01*
X0036749Y0130646D02*
X0150521Y0130646D01*
X0148923Y0132245D02*
X0037087Y0132245D01*
X0036931Y0133843D02*
X0147324Y0133843D01*
X0145726Y0135442D02*
X0036215Y0135442D01*
X0034579Y0137040D02*
X0144127Y0137040D01*
X0142529Y0138639D02*
X0035393Y0138639D01*
X0036576Y0140237D02*
X0140930Y0140237D01*
X0139332Y0141836D02*
X0037087Y0141836D01*
X0036179Y0148230D02*
X0107733Y0148230D01*
X0107457Y0149828D02*
X0036407Y0149828D01*
X0037069Y0151427D02*
X0107457Y0151427D01*
X0107457Y0153025D02*
X0037087Y0153025D01*
X0036899Y0154624D02*
X0107457Y0154624D01*
X0107552Y0156222D02*
X0038497Y0156222D01*
X0040096Y0157821D02*
X0108278Y0157821D01*
X0110486Y0159419D02*
X0041694Y0159419D01*
X0043293Y0161018D02*
X0064592Y0161018D01*
X0064524Y0161053D02*
X0065133Y0160743D01*
X0065783Y0160531D01*
X0066458Y0160424D01*
X0066616Y0160424D01*
X0066616Y0167339D01*
X0066984Y0167339D01*
X0066984Y0160424D01*
X0067142Y0160424D01*
X0067817Y0160531D01*
X0068467Y0160743D01*
X0069076Y0161053D01*
X0069629Y0161455D01*
X0070113Y0161938D01*
X0070515Y0162491D01*
X0070825Y0163100D01*
X0071036Y0163751D01*
X0071143Y0164426D01*
X0071143Y0167339D01*
X0066984Y0167339D01*
X0066984Y0167708D01*
X0066616Y0167708D01*
X0066616Y0174623D01*
X0066458Y0174623D01*
X0065783Y0174516D01*
X0065133Y0174305D01*
X0064524Y0173994D01*
X0063971Y0173592D01*
X0063487Y0173109D01*
X0063085Y0172556D01*
X0062775Y0171947D01*
X0062564Y0171297D01*
X0062457Y0170621D01*
X0062457Y0167708D01*
X0066616Y0167708D01*
X0066616Y0167339D01*
X0062457Y0167339D01*
X0062457Y0164426D01*
X0062564Y0163751D01*
X0062775Y0163100D01*
X0063085Y0162491D01*
X0063487Y0161938D01*
X0063971Y0161455D01*
X0064524Y0161053D01*
X0066616Y0161018D02*
X0066984Y0161018D01*
X0066984Y0162616D02*
X0066616Y0162616D01*
X0066616Y0164215D02*
X0066984Y0164215D01*
X0066984Y0165813D02*
X0066616Y0165813D01*
X0066616Y0167412D02*
X0049687Y0167412D01*
X0051285Y0169010D02*
X0062457Y0169010D01*
X0062457Y0170609D02*
X0052884Y0170609D01*
X0054482Y0172208D02*
X0062908Y0172208D01*
X0064265Y0173806D02*
X0056081Y0173806D01*
X0057679Y0175405D02*
X0092234Y0175405D01*
X0093832Y0177003D02*
X0059278Y0177003D01*
X0060876Y0178602D02*
X0095431Y0178602D01*
X0096115Y0180200D02*
X0062475Y0180200D01*
X0064073Y0181799D02*
X0095438Y0181799D01*
X0095472Y0183397D02*
X0065672Y0183397D01*
X0062549Y0191390D02*
X0061110Y0191390D01*
X0060474Y0192988D02*
X0064148Y0192988D01*
X0060474Y0194587D02*
X0095965Y0194587D01*
X0097866Y0196185D02*
X0060474Y0196185D01*
X0060474Y0197784D02*
X0106118Y0197784D01*
X0106118Y0196185D02*
X0105734Y0196185D01*
X0111655Y0196185D02*
X0127866Y0196185D01*
X0127161Y0195893D02*
X0126043Y0194775D01*
X0125438Y0193314D01*
X0125438Y0191733D01*
X0126043Y0190272D01*
X0127161Y0189154D01*
X0128622Y0188549D01*
X0134978Y0188549D01*
X0136439Y0189154D01*
X0137557Y0190272D01*
X0138162Y0191733D01*
X0138162Y0193314D01*
X0137557Y0194775D01*
X0136439Y0195893D01*
X0134978Y0196498D01*
X0128622Y0196498D01*
X0127161Y0195893D01*
X0125965Y0194587D02*
X0111655Y0194587D01*
X0111655Y0192988D02*
X0125438Y0192988D01*
X0125580Y0191390D02*
X0111655Y0191390D01*
X0111655Y0189791D02*
X0126524Y0189791D01*
X0128622Y0186498D02*
X0127161Y0185893D01*
X0126043Y0184775D01*
X0125438Y0183314D01*
X0125438Y0181733D01*
X0126043Y0180272D01*
X0127161Y0179154D01*
X0128622Y0178549D01*
X0134978Y0178549D01*
X0136439Y0179154D01*
X0137473Y0180188D01*
X0156098Y0180188D01*
X0181710Y0154575D01*
X0181313Y0153615D01*
X0181313Y0151432D01*
X0182148Y0149415D01*
X0183692Y0147872D01*
X0185708Y0147036D01*
X0187892Y0147036D01*
X0189908Y0147872D01*
X0191452Y0149415D01*
X0192287Y0151432D01*
X0192287Y0153615D01*
X0191452Y0155632D01*
X0189908Y0157176D01*
X0187892Y0158011D01*
X0185708Y0158011D01*
X0184414Y0157475D01*
X0157739Y0184150D01*
X0137816Y0184150D01*
X0137557Y0184775D01*
X0136439Y0185893D01*
X0134978Y0186498D01*
X0128622Y0186498D01*
X0126263Y0184996D02*
X0107428Y0184996D01*
X0108128Y0183397D02*
X0125472Y0183397D01*
X0125438Y0181799D02*
X0108162Y0181799D01*
X0107485Y0180200D02*
X0126115Y0180200D01*
X0128495Y0178602D02*
X0105105Y0178602D01*
X0099435Y0177003D02*
X0159283Y0177003D01*
X0160881Y0175405D02*
X0097837Y0175405D01*
X0096238Y0173806D02*
X0162480Y0173806D01*
X0164078Y0172208D02*
X0094640Y0172208D01*
X0093041Y0170609D02*
X0165677Y0170609D01*
X0167275Y0169010D02*
X0091443Y0169010D01*
X0089844Y0167412D02*
X0168874Y0167412D01*
X0170472Y0165813D02*
X0081143Y0165813D01*
X0081143Y0164215D02*
X0172071Y0164215D01*
X0173669Y0162616D02*
X0080610Y0162616D01*
X0079097Y0161018D02*
X0175268Y0161018D01*
X0176866Y0159419D02*
X0123155Y0159419D01*
X0120445Y0159419D02*
X0113114Y0159419D01*
X0111984Y0159419D02*
X0111616Y0159419D01*
X0111616Y0157821D02*
X0111984Y0157821D01*
X0111984Y0156222D02*
X0111616Y0156222D01*
X0111616Y0154624D02*
X0111984Y0154624D01*
X0111984Y0153025D02*
X0111616Y0153025D01*
X0116143Y0153025D02*
X0117457Y0153025D01*
X0117457Y0151427D02*
X0116143Y0151427D01*
X0116143Y0149828D02*
X0117457Y0149828D01*
X0117736Y0148230D02*
X0115867Y0148230D01*
X0116143Y0154624D02*
X0117457Y0154624D01*
X0117489Y0156222D02*
X0116048Y0156222D01*
X0115322Y0157821D02*
X0118199Y0157821D01*
X0125401Y0157821D02*
X0145250Y0157821D01*
X0142738Y0156222D02*
X0126111Y0156222D01*
X0126143Y0149828D02*
X0141977Y0149828D01*
X0143333Y0148230D02*
X0125864Y0148230D01*
X0140140Y0146631D02*
X0216513Y0146631D01*
X0216513Y0146472D02*
X0217318Y0144529D01*
X0218805Y0143041D01*
X0220054Y0142524D01*
X0218805Y0142006D01*
X0217318Y0140519D01*
X0216513Y0138575D01*
X0216513Y0136472D01*
X0217318Y0134529D01*
X0218805Y0133041D01*
X0220748Y0132236D01*
X0222852Y0132236D01*
X0224795Y0133041D01*
X0226282Y0134529D01*
X0227087Y0136472D01*
X0227087Y0138575D01*
X0226282Y0140519D01*
X0224795Y0142006D01*
X0223546Y0142524D01*
X0224795Y0143041D01*
X0226282Y0144529D01*
X0227087Y0146472D01*
X0227087Y0148575D01*
X0226282Y0150519D01*
X0224795Y0152006D01*
X0223546Y0152524D01*
X0224795Y0153041D01*
X0226282Y0154529D01*
X0227087Y0156472D01*
X0227087Y0158575D01*
X0226282Y0160519D01*
X0224795Y0162006D01*
X0223546Y0162524D01*
X0224795Y0163041D01*
X0226282Y0164529D01*
X0227087Y0166472D01*
X0227087Y0168575D01*
X0226282Y0170519D01*
X0224795Y0172006D01*
X0223546Y0172524D01*
X0224795Y0173041D01*
X0226282Y0174529D01*
X0227087Y0176472D01*
X0227087Y0178575D01*
X0226282Y0180519D01*
X0224795Y0182006D01*
X0223535Y0182528D01*
X0223830Y0182624D01*
X0224571Y0183001D01*
X0225245Y0183491D01*
X0225833Y0184079D01*
X0226322Y0184752D01*
X0226700Y0185494D01*
X0226957Y0186285D01*
X0227087Y0187107D01*
X0227087Y0187324D01*
X0222000Y0187324D01*
X0222000Y0187724D01*
X0221600Y0187724D01*
X0221600Y0197324D01*
X0222000Y0197324D01*
X0222000Y0197724D01*
X0227087Y0197724D01*
X0227087Y0197940D01*
X0226957Y0198762D01*
X0226700Y0199553D01*
X0226322Y0200295D01*
X0225833Y0200968D01*
X0225245Y0201557D01*
X0224571Y0202046D01*
X0223830Y0202424D01*
X0223535Y0202519D01*
X0224795Y0203041D01*
X0226282Y0204529D01*
X0227087Y0206472D01*
X0227087Y0208575D01*
X0226282Y0210519D01*
X0224795Y0212006D01*
X0222852Y0212811D01*
X0220748Y0212811D01*
X0218805Y0212006D01*
X0218742Y0211943D01*
X0218742Y0221506D01*
X0219846Y0222610D01*
X0220748Y0222236D01*
X0222852Y0222236D01*
X0224795Y0223041D01*
X0226282Y0224529D01*
X0227087Y0226472D01*
X0227087Y0228575D01*
X0226282Y0230519D01*
X0224795Y0232006D01*
X0223546Y0232524D01*
X0224795Y0233041D01*
X0226282Y0234529D01*
X0227087Y0236472D01*
X0227087Y0238575D01*
X0226282Y0240519D01*
X0224795Y0242006D01*
X0223546Y0242524D01*
X0224795Y0243041D01*
X0226282Y0244529D01*
X0227087Y0246472D01*
X0227087Y0248575D01*
X0226282Y0250519D01*
X0224795Y0252006D01*
X0223546Y0252524D01*
X0224795Y0253041D01*
X0226282Y0254529D01*
X0227087Y0256472D01*
X0227087Y0258575D01*
X0226282Y0260519D01*
X0224795Y0262006D01*
X0223546Y0262524D01*
X0224795Y0263041D01*
X0226282Y0264529D01*
X0227087Y0266472D01*
X0227087Y0268575D01*
X0226282Y0270519D01*
X0224795Y0272006D01*
X0223546Y0272524D01*
X0224795Y0273041D01*
X0226282Y0274529D01*
X0227087Y0276472D01*
X0227087Y0278575D01*
X0226282Y0280519D01*
X0224795Y0282006D01*
X0222852Y0282811D01*
X0220748Y0282811D01*
X0218805Y0282006D01*
X0217318Y0280519D01*
X0216513Y0278575D01*
X0216513Y0276472D01*
X0216863Y0275625D01*
X0200979Y0259741D01*
X0198339Y0259741D01*
X0198238Y0259984D01*
X0197016Y0261206D01*
X0195420Y0261867D01*
X0188180Y0261867D01*
X0186584Y0261206D01*
X0185362Y0259984D01*
X0184701Y0258388D01*
X0184701Y0256660D01*
X0185362Y0255063D01*
X0186584Y0253842D01*
X0188180Y0253180D01*
X0195420Y0253180D01*
X0197016Y0253842D01*
X0198238Y0255063D01*
X0198534Y0255779D01*
X0202621Y0255779D01*
X0217287Y0270445D01*
X0216513Y0268575D01*
X0216513Y0266472D01*
X0216933Y0265458D01*
X0200979Y0249505D01*
X0198436Y0249505D01*
X0198238Y0249984D01*
X0197016Y0251206D01*
X0195420Y0251867D01*
X0188180Y0251867D01*
X0186584Y0251206D01*
X0185362Y0249984D01*
X0184701Y0248388D01*
X0184701Y0246660D01*
X0185362Y0245063D01*
X0186584Y0243842D01*
X0188180Y0243180D01*
X0195420Y0243180D01*
X0197016Y0243842D01*
X0198238Y0245063D01*
X0198436Y0245543D01*
X0202621Y0245543D01*
X0217120Y0260042D01*
X0216513Y0258575D01*
X0216513Y0256472D01*
X0217002Y0255291D01*
X0201767Y0240056D01*
X0198166Y0240056D01*
X0197016Y0241206D01*
X0195420Y0241867D01*
X0188180Y0241867D01*
X0186584Y0241206D01*
X0185362Y0239984D01*
X0184701Y0238388D01*
X0184701Y0236660D01*
X0185362Y0235063D01*
X0186584Y0233842D01*
X0188180Y0233180D01*
X0195420Y0233180D01*
X0197016Y0233842D01*
X0198238Y0235063D01*
X0198665Y0236094D01*
X0203408Y0236094D01*
X0216953Y0249639D01*
X0216513Y0248575D01*
X0216513Y0246472D01*
X0216840Y0245681D01*
X0201394Y0230234D01*
X0201394Y0205037D01*
X0198899Y0202543D01*
X0198899Y0203388D01*
X0198238Y0204984D01*
X0197016Y0206206D01*
X0195420Y0206867D01*
X0188180Y0206867D01*
X0186584Y0206206D01*
X0185362Y0204984D01*
X0184701Y0203388D01*
X0184701Y0201660D01*
X0185362Y0200063D01*
X0186584Y0198842D01*
X0188180Y0198180D01*
X0194537Y0198180D01*
X0193223Y0196867D01*
X0188180Y0196867D01*
X0186584Y0196206D01*
X0185362Y0194984D01*
X0184701Y0193388D01*
X0184701Y0191660D01*
X0185362Y0190063D01*
X0186584Y0188842D01*
X0188180Y0188180D01*
X0193198Y0188180D01*
X0191885Y0186867D01*
X0188180Y0186867D01*
X0186584Y0186206D01*
X0185362Y0184984D01*
X0184701Y0183388D01*
X0184701Y0181660D01*
X0185362Y0180063D01*
X0186584Y0178842D01*
X0188180Y0178180D01*
X0193435Y0178180D01*
X0192121Y0176867D01*
X0188180Y0176867D01*
X0186584Y0176206D01*
X0185362Y0174984D01*
X0184701Y0173388D01*
X0184701Y0171660D01*
X0185362Y0170063D01*
X0186584Y0168842D01*
X0188180Y0168180D01*
X0195420Y0168180D01*
X0197016Y0168842D01*
X0198238Y0170063D01*
X0198899Y0171660D01*
X0198899Y0173388D01*
X0198238Y0174984D01*
X0197040Y0176182D01*
X0216765Y0195908D01*
X0216900Y0195494D01*
X0217278Y0194752D01*
X0217767Y0194079D01*
X0218355Y0193491D01*
X0219029Y0193001D01*
X0219770Y0192624D01*
X0220078Y0192524D01*
X0219770Y0192424D01*
X0219029Y0192046D01*
X0218355Y0191557D01*
X0217767Y0190968D01*
X0217278Y0190295D01*
X0216900Y0189553D01*
X0216643Y0188762D01*
X0216513Y0187940D01*
X0216513Y0187724D01*
X0221600Y0187724D01*
X0221600Y0187324D01*
X0216513Y0187324D01*
X0216513Y0187107D01*
X0216643Y0186285D01*
X0216900Y0185494D01*
X0217278Y0184752D01*
X0217767Y0184079D01*
X0218355Y0183491D01*
X0219029Y0183001D01*
X0219770Y0182624D01*
X0220065Y0182528D01*
X0218805Y0182006D01*
X0217318Y0180519D01*
X0216513Y0178575D01*
X0216513Y0176472D01*
X0217318Y0174529D01*
X0218805Y0173041D01*
X0220054Y0172524D01*
X0218805Y0172006D01*
X0217318Y0170519D01*
X0216513Y0168575D01*
X0216513Y0166472D01*
X0217318Y0164529D01*
X0218805Y0163041D01*
X0220054Y0162524D01*
X0218805Y0162006D01*
X0217318Y0160519D01*
X0216513Y0158575D01*
X0216513Y0156472D01*
X0217318Y0154529D01*
X0218805Y0153041D01*
X0220054Y0152524D01*
X0218805Y0152006D01*
X0217318Y0150519D01*
X0216513Y0148575D01*
X0216513Y0146472D01*
X0217109Y0145033D02*
X0141738Y0145033D01*
X0143337Y0143434D02*
X0218412Y0143434D01*
X0218635Y0141836D02*
X0144935Y0141836D01*
X0146534Y0140237D02*
X0217201Y0140237D01*
X0216539Y0138639D02*
X0148132Y0138639D01*
X0149731Y0137040D02*
X0216513Y0137040D01*
X0216939Y0135442D02*
X0151329Y0135442D01*
X0152928Y0133843D02*
X0218003Y0133843D01*
X0220728Y0132245D02*
X0154526Y0132245D01*
X0156125Y0130646D02*
X0229019Y0130646D01*
X0229019Y0129048D02*
X0157723Y0129048D01*
X0159322Y0127449D02*
X0229019Y0127449D01*
X0229019Y0125851D02*
X0160920Y0125851D01*
X0162519Y0124252D02*
X0165041Y0124252D01*
X0168559Y0124252D02*
X0175041Y0124252D01*
X0174340Y0123962D02*
X0175936Y0124623D01*
X0177664Y0124623D01*
X0179260Y0123962D01*
X0180482Y0122740D01*
X0181143Y0121143D01*
X0181143Y0113904D01*
X0180482Y0112307D01*
X0179260Y0111086D01*
X0177664Y0110424D01*
X0175936Y0110424D01*
X0174340Y0111086D01*
X0173118Y0112307D01*
X0172457Y0113904D01*
X0172457Y0121143D01*
X0173118Y0122740D01*
X0174340Y0123962D01*
X0173082Y0122654D02*
X0170518Y0122654D01*
X0171143Y0121055D02*
X0172457Y0121055D01*
X0172457Y0119457D02*
X0171143Y0119457D01*
X0171143Y0117858D02*
X0172457Y0117858D01*
X0172457Y0116260D02*
X0171143Y0116260D01*
X0171143Y0114661D02*
X0172457Y0114661D01*
X0172805Y0113063D02*
X0170795Y0113063D01*
X0169639Y0111464D02*
X0173961Y0111464D01*
X0179639Y0111464D02*
X0183961Y0111464D01*
X0184340Y0111086D02*
X0183118Y0112307D01*
X0182457Y0113904D01*
X0182457Y0121143D01*
X0183118Y0122740D01*
X0184340Y0123962D01*
X0185936Y0124623D01*
X0187664Y0124623D01*
X0189260Y0123962D01*
X0190482Y0122740D01*
X0191143Y0121143D01*
X0191143Y0113904D01*
X0190482Y0112307D01*
X0189260Y0111086D01*
X0187664Y0110424D01*
X0185936Y0110424D01*
X0184340Y0111086D01*
X0182805Y0113063D02*
X0180795Y0113063D01*
X0181143Y0114661D02*
X0182457Y0114661D01*
X0182457Y0116260D02*
X0181143Y0116260D01*
X0181143Y0117858D02*
X0182457Y0117858D01*
X0182457Y0119457D02*
X0181143Y0119457D01*
X0181143Y0121055D02*
X0182457Y0121055D01*
X0183082Y0122654D02*
X0180518Y0122654D01*
X0178559Y0124252D02*
X0185041Y0124252D01*
X0188559Y0124252D02*
X0229019Y0124252D01*
X0229019Y0122654D02*
X0190518Y0122654D01*
X0191143Y0121055D02*
X0229019Y0121055D01*
X0229019Y0119457D02*
X0191143Y0119457D01*
X0191143Y0117858D02*
X0229019Y0117858D01*
X0229019Y0116260D02*
X0191143Y0116260D01*
X0191143Y0114661D02*
X0229019Y0114661D01*
X0229019Y0113063D02*
X0190795Y0113063D01*
X0189639Y0111464D02*
X0229019Y0111464D01*
X0229019Y0109866D02*
X0070881Y0109866D01*
X0072479Y0111464D02*
X0073961Y0111464D01*
X0069282Y0108267D02*
X0229019Y0108267D01*
X0229019Y0106669D02*
X0067684Y0106669D01*
X0066085Y0105070D02*
X0229019Y0105070D01*
X0229019Y0103472D02*
X0064487Y0103472D01*
X0062888Y0101873D02*
X0229019Y0101873D01*
X0229019Y0132245D02*
X0222872Y0132245D01*
X0225597Y0133843D02*
X0229019Y0133843D01*
X0229019Y0135442D02*
X0226661Y0135442D01*
X0227087Y0137040D02*
X0229019Y0137040D01*
X0229019Y0138639D02*
X0227061Y0138639D01*
X0226399Y0140237D02*
X0229019Y0140237D01*
X0229019Y0141836D02*
X0224965Y0141836D01*
X0225188Y0143434D02*
X0229019Y0143434D01*
X0229019Y0145033D02*
X0226491Y0145033D01*
X0227087Y0146631D02*
X0229019Y0146631D01*
X0229019Y0148230D02*
X0227087Y0148230D01*
X0226568Y0149828D02*
X0229019Y0149828D01*
X0229019Y0151427D02*
X0225374Y0151427D01*
X0224757Y0153025D02*
X0229019Y0153025D01*
X0229019Y0154624D02*
X0226322Y0154624D01*
X0226984Y0156222D02*
X0229019Y0156222D01*
X0229019Y0157821D02*
X0227087Y0157821D01*
X0226738Y0159419D02*
X0229019Y0159419D01*
X0229019Y0161018D02*
X0225783Y0161018D01*
X0223770Y0162616D02*
X0229019Y0162616D01*
X0229019Y0164215D02*
X0225969Y0164215D01*
X0226815Y0165813D02*
X0229019Y0165813D01*
X0229019Y0167412D02*
X0227087Y0167412D01*
X0226907Y0169010D02*
X0229019Y0169010D01*
X0229019Y0170609D02*
X0226192Y0170609D01*
X0224309Y0172208D02*
X0229019Y0172208D01*
X0229019Y0173806D02*
X0225560Y0173806D01*
X0226645Y0175405D02*
X0229019Y0175405D01*
X0229019Y0177003D02*
X0227087Y0177003D01*
X0227077Y0178602D02*
X0229019Y0178602D01*
X0229019Y0180200D02*
X0226414Y0180200D01*
X0225003Y0181799D02*
X0229019Y0181799D01*
X0229019Y0183397D02*
X0225116Y0183397D01*
X0226446Y0184996D02*
X0229019Y0184996D01*
X0229019Y0186594D02*
X0227006Y0186594D01*
X0227087Y0187724D02*
X0227087Y0187940D01*
X0226957Y0188762D01*
X0226700Y0189553D01*
X0226322Y0190295D01*
X0225833Y0190968D01*
X0225245Y0191557D01*
X0224571Y0192046D01*
X0223830Y0192424D01*
X0223522Y0192524D01*
X0223830Y0192624D01*
X0224571Y0193001D01*
X0225245Y0193491D01*
X0225833Y0194079D01*
X0226322Y0194752D01*
X0226700Y0195494D01*
X0226957Y0196285D01*
X0227087Y0197107D01*
X0227087Y0197324D01*
X0222000Y0197324D01*
X0222000Y0192236D01*
X0222000Y0187724D01*
X0227087Y0187724D01*
X0227047Y0188193D02*
X0229019Y0188193D01*
X0229019Y0189791D02*
X0226579Y0189791D01*
X0225411Y0191390D02*
X0229019Y0191390D01*
X0229019Y0192988D02*
X0224545Y0192988D01*
X0226202Y0194587D02*
X0229019Y0194587D01*
X0229019Y0196185D02*
X0226925Y0196185D01*
X0227087Y0197784D02*
X0229019Y0197784D01*
X0229019Y0199382D02*
X0226756Y0199382D01*
X0225820Y0200981D02*
X0229019Y0200981D01*
X0229019Y0202579D02*
X0223680Y0202579D01*
X0225932Y0204178D02*
X0229019Y0204178D01*
X0229019Y0205776D02*
X0226799Y0205776D01*
X0227087Y0207375D02*
X0229019Y0207375D01*
X0229019Y0208973D02*
X0226923Y0208973D01*
X0226229Y0210572D02*
X0229019Y0210572D01*
X0229019Y0212170D02*
X0224399Y0212170D01*
X0229019Y0213769D02*
X0218742Y0213769D01*
X0218742Y0215367D02*
X0229019Y0215367D01*
X0229019Y0216966D02*
X0218742Y0216966D01*
X0218742Y0218564D02*
X0229019Y0218564D01*
X0229019Y0220163D02*
X0218742Y0220163D01*
X0218997Y0221761D02*
X0229019Y0221761D01*
X0229019Y0223360D02*
X0225114Y0223360D01*
X0226460Y0224958D02*
X0229019Y0224958D01*
X0229019Y0226557D02*
X0227087Y0226557D01*
X0227087Y0228155D02*
X0229019Y0228155D01*
X0229019Y0229754D02*
X0226599Y0229754D01*
X0225449Y0231352D02*
X0229019Y0231352D01*
X0229019Y0232951D02*
X0224577Y0232951D01*
X0226291Y0234549D02*
X0229019Y0234549D01*
X0229019Y0236148D02*
X0226953Y0236148D01*
X0227087Y0237746D02*
X0229019Y0237746D01*
X0229019Y0239345D02*
X0226769Y0239345D01*
X0225858Y0240943D02*
X0229019Y0240943D01*
X0229019Y0242542D02*
X0223590Y0242542D01*
X0225894Y0244141D02*
X0229019Y0244141D01*
X0229019Y0245739D02*
X0226784Y0245739D01*
X0227087Y0247338D02*
X0229019Y0247338D01*
X0229019Y0248936D02*
X0226938Y0248936D01*
X0226267Y0250535D02*
X0229019Y0250535D01*
X0229019Y0252133D02*
X0224488Y0252133D01*
X0225485Y0253732D02*
X0229019Y0253732D01*
X0229019Y0255330D02*
X0226614Y0255330D01*
X0227087Y0256929D02*
X0229019Y0256929D01*
X0229019Y0258527D02*
X0227087Y0258527D01*
X0226445Y0260126D02*
X0229019Y0260126D01*
X0229019Y0261724D02*
X0225077Y0261724D01*
X0225077Y0263323D02*
X0229019Y0263323D01*
X0229019Y0264921D02*
X0226445Y0264921D01*
X0227087Y0266520D02*
X0229019Y0266520D01*
X0229019Y0268118D02*
X0227087Y0268118D01*
X0226615Y0269717D02*
X0229019Y0269717D01*
X0229019Y0271315D02*
X0225486Y0271315D01*
X0224487Y0272914D02*
X0229019Y0272914D01*
X0229019Y0274512D02*
X0226266Y0274512D01*
X0226938Y0276111D02*
X0229019Y0276111D01*
X0229019Y0277709D02*
X0227087Y0277709D01*
X0226784Y0279308D02*
X0229019Y0279308D01*
X0229019Y0280906D02*
X0225895Y0280906D01*
X0223591Y0282505D02*
X0229019Y0282505D01*
X0229019Y0284103D02*
X0167135Y0284103D01*
X0167135Y0283298D02*
X0167135Y0286282D01*
X0167027Y0286686D01*
X0166818Y0287048D01*
X0166523Y0287343D01*
X0166161Y0287552D01*
X0165757Y0287660D01*
X0163173Y0287660D01*
X0163173Y0283298D01*
X0167135Y0283298D01*
X0167135Y0281749D02*
X0163173Y0281749D01*
X0163173Y0277387D01*
X0165757Y0277387D01*
X0166161Y0277495D01*
X0166523Y0277704D01*
X0166818Y0278000D01*
X0167027Y0278362D01*
X0167135Y0278765D01*
X0167135Y0281749D01*
X0167135Y0280906D02*
X0186284Y0280906D01*
X0186584Y0281206D02*
X0185362Y0279984D01*
X0184701Y0278388D01*
X0184701Y0276660D01*
X0185362Y0275063D01*
X0186584Y0273842D01*
X0188180Y0273180D01*
X0195420Y0273180D01*
X0197016Y0273842D01*
X0198238Y0275063D01*
X0198899Y0276660D01*
X0198899Y0278388D01*
X0198238Y0279984D01*
X0197016Y0281206D01*
X0195420Y0281867D01*
X0188180Y0281867D01*
X0186584Y0281206D01*
X0185082Y0279308D02*
X0167135Y0279308D01*
X0166528Y0277709D02*
X0184701Y0277709D01*
X0184928Y0276111D02*
X0153967Y0276111D01*
X0155331Y0277709D02*
X0158269Y0277709D01*
X0158274Y0277704D02*
X0158636Y0277495D01*
X0159040Y0277387D01*
X0161624Y0277387D01*
X0161624Y0281749D01*
X0163173Y0281749D01*
X0163173Y0283298D01*
X0161624Y0283298D01*
X0161624Y0281749D01*
X0157661Y0281749D01*
X0157661Y0278765D01*
X0157770Y0278362D01*
X0157979Y0278000D01*
X0158274Y0277704D01*
X0157661Y0279308D02*
X0155939Y0279308D01*
X0155939Y0280906D02*
X0157661Y0280906D01*
X0155939Y0282505D02*
X0161624Y0282505D01*
X0161624Y0283298D02*
X0157661Y0283298D01*
X0157661Y0286282D01*
X0157770Y0286686D01*
X0157979Y0287048D01*
X0158274Y0287343D01*
X0158636Y0287552D01*
X0159040Y0287660D01*
X0161624Y0287660D01*
X0161624Y0283298D01*
X0161624Y0284103D02*
X0163173Y0284103D01*
X0163173Y0282505D02*
X0220009Y0282505D01*
X0217705Y0280906D02*
X0197316Y0280906D01*
X0198518Y0279308D02*
X0216816Y0279308D01*
X0216513Y0277709D02*
X0198899Y0277709D01*
X0198672Y0276111D02*
X0216662Y0276111D01*
X0215751Y0274512D02*
X0197687Y0274512D01*
X0196752Y0271315D02*
X0212554Y0271315D01*
X0214152Y0272914D02*
X0157164Y0272914D01*
X0155566Y0274512D02*
X0185913Y0274512D01*
X0186848Y0271315D02*
X0167135Y0271315D01*
X0167135Y0269717D02*
X0185251Y0269717D01*
X0185362Y0269984D02*
X0184701Y0268388D01*
X0184701Y0266660D01*
X0185362Y0265063D01*
X0186584Y0263842D01*
X0188180Y0263180D01*
X0195420Y0263180D01*
X0197016Y0263842D01*
X0198238Y0265063D01*
X0198899Y0266660D01*
X0198899Y0268388D01*
X0198238Y0269984D01*
X0197016Y0271206D01*
X0195420Y0271867D01*
X0188180Y0271867D01*
X0186584Y0271206D01*
X0185362Y0269984D01*
X0184701Y0268118D02*
X0167135Y0268118D01*
X0167135Y0266520D02*
X0184759Y0266520D01*
X0185504Y0264921D02*
X0167519Y0264921D01*
X0169118Y0263323D02*
X0187837Y0263323D01*
X0187835Y0261724D02*
X0169135Y0261724D01*
X0169135Y0260126D02*
X0185504Y0260126D01*
X0184759Y0258527D02*
X0169135Y0258527D01*
X0169135Y0256929D02*
X0184701Y0256929D01*
X0185252Y0255330D02*
X0169135Y0255330D01*
X0169135Y0253732D02*
X0186849Y0253732D01*
X0185913Y0250535D02*
X0169135Y0250535D01*
X0169135Y0252133D02*
X0203608Y0252133D01*
X0205206Y0253732D02*
X0196751Y0253732D01*
X0198348Y0255330D02*
X0206805Y0255330D01*
X0208403Y0256929D02*
X0203770Y0256929D01*
X0205369Y0258527D02*
X0210002Y0258527D01*
X0211600Y0260126D02*
X0206967Y0260126D01*
X0208566Y0261724D02*
X0213199Y0261724D01*
X0214797Y0263323D02*
X0210165Y0263323D01*
X0211763Y0264921D02*
X0216396Y0264921D01*
X0216513Y0266520D02*
X0213362Y0266520D01*
X0214960Y0268118D02*
X0216513Y0268118D01*
X0216559Y0269717D02*
X0216985Y0269717D01*
X0210955Y0269717D02*
X0198349Y0269717D01*
X0198899Y0268118D02*
X0209357Y0268118D01*
X0207758Y0266520D02*
X0198841Y0266520D01*
X0198096Y0264921D02*
X0206160Y0264921D01*
X0204561Y0263323D02*
X0195763Y0263323D01*
X0195765Y0261724D02*
X0202963Y0261724D01*
X0201364Y0260126D02*
X0198096Y0260126D01*
X0197687Y0250535D02*
X0202009Y0250535D01*
X0204416Y0247338D02*
X0209048Y0247338D01*
X0210647Y0248936D02*
X0206014Y0248936D01*
X0207613Y0250535D02*
X0212245Y0250535D01*
X0213844Y0252133D02*
X0209211Y0252133D01*
X0210810Y0253732D02*
X0215442Y0253732D01*
X0216986Y0255330D02*
X0212408Y0255330D01*
X0214007Y0256929D02*
X0216513Y0256929D01*
X0216513Y0258527D02*
X0215605Y0258527D01*
X0216250Y0248936D02*
X0216662Y0248936D01*
X0216513Y0247338D02*
X0214652Y0247338D01*
X0213053Y0245739D02*
X0216816Y0245739D01*
X0215300Y0244141D02*
X0211455Y0244141D01*
X0209856Y0242542D02*
X0213702Y0242542D01*
X0212103Y0240943D02*
X0208258Y0240943D01*
X0206659Y0239345D02*
X0210505Y0239345D01*
X0208906Y0237746D02*
X0205061Y0237746D01*
X0203462Y0236148D02*
X0207308Y0236148D01*
X0205709Y0234549D02*
X0197724Y0234549D01*
X0202512Y0231352D02*
X0167117Y0231352D01*
X0167135Y0229754D02*
X0201394Y0229754D01*
X0201394Y0228155D02*
X0163173Y0228155D01*
X0161624Y0228155D02*
X0155939Y0228155D01*
X0155939Y0226557D02*
X0157661Y0226557D01*
X0157661Y0226749D02*
X0157661Y0223765D01*
X0157770Y0223362D01*
X0157979Y0223000D01*
X0158274Y0222704D01*
X0158636Y0222495D01*
X0159040Y0222387D01*
X0161624Y0222387D01*
X0161624Y0226749D01*
X0157661Y0226749D01*
X0157661Y0224958D02*
X0155939Y0224958D01*
X0155939Y0223360D02*
X0157771Y0223360D01*
X0161624Y0223360D02*
X0163173Y0223360D01*
X0163173Y0224958D02*
X0161624Y0224958D01*
X0161624Y0226557D02*
X0163173Y0226557D01*
X0163173Y0229754D02*
X0161624Y0229754D01*
X0161624Y0231352D02*
X0163173Y0231352D01*
X0160919Y0234549D02*
X0185876Y0234549D01*
X0184913Y0236148D02*
X0162517Y0236148D01*
X0164116Y0237746D02*
X0184701Y0237746D01*
X0185097Y0239345D02*
X0165714Y0239345D01*
X0167313Y0240943D02*
X0186322Y0240943D01*
X0186285Y0244141D02*
X0169135Y0244141D01*
X0169135Y0245739D02*
X0185082Y0245739D01*
X0184701Y0247338D02*
X0169135Y0247338D01*
X0169135Y0248936D02*
X0184928Y0248936D01*
X0197315Y0244141D02*
X0205851Y0244141D01*
X0207450Y0245739D02*
X0202817Y0245739D01*
X0204253Y0242542D02*
X0168911Y0242542D01*
X0161710Y0240943D02*
X0140541Y0240943D01*
X0138943Y0239345D02*
X0160111Y0239345D01*
X0158513Y0237746D02*
X0137344Y0237746D01*
X0135824Y0236148D02*
X0156914Y0236148D01*
X0155315Y0234549D02*
X0137651Y0234549D01*
X0138162Y0232951D02*
X0153717Y0232951D01*
X0156123Y0229754D02*
X0157661Y0229754D01*
X0159320Y0232951D02*
X0204111Y0232951D01*
X0201394Y0226557D02*
X0167135Y0226557D01*
X0167135Y0224958D02*
X0201394Y0224958D01*
X0201394Y0223360D02*
X0167026Y0223360D01*
X0152553Y0212170D02*
X0184703Y0212170D01*
X0184701Y0212182D02*
X0184808Y0211507D01*
X0185019Y0210856D01*
X0185329Y0210247D01*
X0185731Y0209694D01*
X0186215Y0209211D01*
X0186768Y0208809D01*
X0187377Y0208499D01*
X0188027Y0208287D01*
X0188702Y0208180D01*
X0191616Y0208180D01*
X0191616Y0212339D01*
X0191984Y0212339D01*
X0191984Y0208180D01*
X0194898Y0208180D01*
X0195573Y0208287D01*
X0196223Y0208499D01*
X0196832Y0208809D01*
X0197385Y0209211D01*
X0197869Y0209694D01*
X0198271Y0210247D01*
X0198581Y0210856D01*
X0198792Y0211507D01*
X0198899Y0212182D01*
X0198899Y0212339D01*
X0191984Y0212339D01*
X0191984Y0212708D01*
X0191616Y0212708D01*
X0191616Y0216867D01*
X0188702Y0216867D01*
X0188027Y0216760D01*
X0187377Y0216549D01*
X0186768Y0216238D01*
X0186215Y0215837D01*
X0185731Y0215353D01*
X0185329Y0214800D01*
X0185019Y0214191D01*
X0184808Y0213541D01*
X0184701Y0212865D01*
X0184701Y0212708D01*
X0191616Y0212708D01*
X0191616Y0212339D01*
X0184701Y0212339D01*
X0184701Y0212182D01*
X0184882Y0213769D02*
X0150955Y0213769D01*
X0149356Y0215367D02*
X0185745Y0215367D01*
X0185164Y0210572D02*
X0153387Y0210572D01*
X0153387Y0208973D02*
X0186541Y0208973D01*
X0186154Y0205776D02*
X0153387Y0205776D01*
X0153387Y0207375D02*
X0201394Y0207375D01*
X0201394Y0208973D02*
X0197059Y0208973D01*
X0198436Y0210572D02*
X0201394Y0210572D01*
X0201394Y0212170D02*
X0198897Y0212170D01*
X0198899Y0212708D02*
X0198899Y0212865D01*
X0198792Y0213541D01*
X0198581Y0214191D01*
X0198271Y0214800D01*
X0197869Y0215353D01*
X0197385Y0215837D01*
X0196832Y0216238D01*
X0196223Y0216549D01*
X0195573Y0216760D01*
X0194898Y0216867D01*
X0191984Y0216867D01*
X0191984Y0212708D01*
X0198899Y0212708D01*
X0198718Y0213769D02*
X0201394Y0213769D01*
X0201394Y0215367D02*
X0197855Y0215367D01*
X0201394Y0216966D02*
X0147758Y0216966D01*
X0146159Y0218564D02*
X0201394Y0218564D01*
X0201394Y0220163D02*
X0144561Y0220163D01*
X0142962Y0221761D02*
X0201394Y0221761D01*
X0191984Y0215367D02*
X0191616Y0215367D01*
X0191616Y0213769D02*
X0191984Y0213769D01*
X0191984Y0212170D02*
X0191616Y0212170D01*
X0191616Y0210572D02*
X0191984Y0210572D01*
X0191984Y0208973D02*
X0191616Y0208973D01*
X0197446Y0205776D02*
X0201394Y0205776D01*
X0200534Y0204178D02*
X0198572Y0204178D01*
X0198899Y0202579D02*
X0198936Y0202579D01*
X0194140Y0197784D02*
X0166143Y0197784D01*
X0166143Y0199382D02*
X0186043Y0199382D01*
X0184982Y0200981D02*
X0166143Y0200981D01*
X0166143Y0201143D02*
X0165482Y0202740D01*
X0164260Y0203962D01*
X0162664Y0204623D01*
X0160936Y0204623D01*
X0159340Y0203962D01*
X0158118Y0202740D01*
X0157457Y0201143D01*
X0157457Y0193904D01*
X0158118Y0192307D01*
X0159340Y0191086D01*
X0160936Y0190424D01*
X0162664Y0190424D01*
X0164260Y0191086D01*
X0165482Y0192307D01*
X0166143Y0193904D01*
X0166143Y0201143D01*
X0165549Y0202579D02*
X0184701Y0202579D01*
X0185028Y0204178D02*
X0163738Y0204178D01*
X0159862Y0204178D02*
X0153738Y0204178D01*
X0155549Y0202579D02*
X0158051Y0202579D01*
X0157457Y0200981D02*
X0156143Y0200981D01*
X0156143Y0199382D02*
X0157457Y0199382D01*
X0157457Y0197784D02*
X0156143Y0197784D01*
X0156143Y0196185D02*
X0157457Y0196185D01*
X0157457Y0194587D02*
X0156143Y0194587D01*
X0155764Y0192988D02*
X0157836Y0192988D01*
X0159036Y0191390D02*
X0154564Y0191390D01*
X0149036Y0191390D02*
X0138020Y0191390D01*
X0138162Y0192988D02*
X0147836Y0192988D01*
X0147457Y0194587D02*
X0137635Y0194587D01*
X0135734Y0196185D02*
X0147457Y0196185D01*
X0147457Y0197784D02*
X0111655Y0197784D01*
X0111655Y0199382D02*
X0126933Y0199382D01*
X0127161Y0199154D02*
X0128622Y0198549D01*
X0134978Y0198549D01*
X0136439Y0199154D01*
X0137557Y0200272D01*
X0138162Y0201733D01*
X0138162Y0203314D01*
X0137557Y0204775D01*
X0136439Y0205893D01*
X0134978Y0206498D01*
X0128622Y0206498D01*
X0127161Y0205893D01*
X0126043Y0204775D01*
X0125438Y0203314D01*
X0125438Y0201733D01*
X0126043Y0200272D01*
X0127161Y0199154D01*
X0125749Y0200981D02*
X0111655Y0200981D01*
X0111655Y0202579D02*
X0125438Y0202579D01*
X0125795Y0204178D02*
X0111655Y0204178D01*
X0111655Y0205776D02*
X0127044Y0205776D01*
X0128253Y0208702D02*
X0129021Y0208549D01*
X0131800Y0208549D01*
X0134579Y0208549D01*
X0135347Y0208702D01*
X0136070Y0209001D01*
X0136721Y0209436D01*
X0137275Y0209990D01*
X0137710Y0210641D01*
X0138009Y0211364D01*
X0138162Y0212132D01*
X0138162Y0212524D01*
X0138162Y0212915D01*
X0138009Y0213683D01*
X0137710Y0214406D01*
X0137275Y0215057D01*
X0136721Y0215611D01*
X0136070Y0216046D01*
X0135347Y0216346D01*
X0134579Y0216498D01*
X0131800Y0216498D01*
X0129021Y0216498D01*
X0128253Y0216346D01*
X0127530Y0216046D01*
X0126879Y0215611D01*
X0126325Y0215057D01*
X0125890Y0214406D01*
X0125591Y0213683D01*
X0125438Y0212915D01*
X0125438Y0212524D01*
X0131800Y0212524D01*
X0131800Y0216498D01*
X0131800Y0212524D01*
X0131800Y0212524D01*
X0138162Y0212524D01*
X0131800Y0212524D01*
X0131800Y0212524D01*
X0131800Y0212524D01*
X0125438Y0212524D01*
X0125438Y0212132D01*
X0125591Y0211364D01*
X0125890Y0210641D01*
X0126325Y0209990D01*
X0126879Y0209436D01*
X0127530Y0209001D01*
X0128253Y0208702D01*
X0127597Y0208973D02*
X0111655Y0208973D01*
X0111655Y0207375D02*
X0149425Y0207375D01*
X0149425Y0208973D02*
X0136003Y0208973D01*
X0137664Y0210572D02*
X0148549Y0210572D01*
X0146950Y0212170D02*
X0138162Y0212170D01*
X0137974Y0213769D02*
X0145352Y0213769D01*
X0143753Y0215367D02*
X0136965Y0215367D01*
X0134657Y0218564D02*
X0140556Y0218564D01*
X0142155Y0216966D02*
X0111655Y0216966D01*
X0111655Y0215367D02*
X0126635Y0215367D01*
X0125626Y0213769D02*
X0111655Y0213769D01*
X0111655Y0212170D02*
X0125438Y0212170D01*
X0125936Y0210572D02*
X0111655Y0210572D01*
X0112650Y0218564D02*
X0128943Y0218564D01*
X0131800Y0218564D02*
X0131800Y0218564D01*
X0131800Y0220163D02*
X0131800Y0220163D01*
X0131800Y0221761D02*
X0131800Y0221761D01*
X0131800Y0222524D02*
X0131800Y0222524D01*
X0131800Y0223360D02*
X0131800Y0223360D01*
X0131800Y0224958D02*
X0131800Y0224958D01*
X0132563Y0226557D02*
X0120643Y0226557D01*
X0122241Y0228155D02*
X0130965Y0228155D01*
X0126561Y0229754D02*
X0123840Y0229754D01*
X0125438Y0231352D02*
X0125595Y0231352D01*
X0126259Y0224958D02*
X0119044Y0224958D01*
X0117446Y0223360D02*
X0125526Y0223360D01*
X0125512Y0221761D02*
X0115847Y0221761D01*
X0114249Y0220163D02*
X0126210Y0220163D01*
X0131800Y0215367D02*
X0131800Y0215367D01*
X0131800Y0213769D02*
X0131800Y0213769D01*
X0131800Y0212523D02*
X0131800Y0208549D01*
X0131800Y0212523D01*
X0131800Y0212523D01*
X0131800Y0212170D02*
X0131800Y0212170D01*
X0131800Y0210572D02*
X0131800Y0210572D01*
X0131800Y0208973D02*
X0131800Y0208973D01*
X0136556Y0205776D02*
X0149425Y0205776D01*
X0149425Y0204178D02*
X0137805Y0204178D01*
X0138162Y0202579D02*
X0148051Y0202579D01*
X0147457Y0200981D02*
X0137851Y0200981D01*
X0136667Y0199382D02*
X0147457Y0199382D01*
X0137076Y0189791D02*
X0185634Y0189791D01*
X0184813Y0191390D02*
X0164564Y0191390D01*
X0165764Y0192988D02*
X0184701Y0192988D01*
X0185197Y0194587D02*
X0166143Y0194587D01*
X0166143Y0196185D02*
X0186563Y0196185D01*
X0188150Y0188193D02*
X0110625Y0188193D01*
X0109027Y0186594D02*
X0187522Y0186594D01*
X0185374Y0184996D02*
X0137337Y0184996D01*
X0135105Y0178602D02*
X0157684Y0178602D01*
X0160091Y0181799D02*
X0184701Y0181799D01*
X0184705Y0183397D02*
X0158492Y0183397D01*
X0161689Y0180200D02*
X0185305Y0180200D01*
X0187163Y0178602D02*
X0163288Y0178602D01*
X0164886Y0177003D02*
X0192257Y0177003D01*
X0185783Y0175405D02*
X0166485Y0175405D01*
X0168083Y0173806D02*
X0184874Y0173806D01*
X0184701Y0172208D02*
X0169682Y0172208D01*
X0171280Y0170609D02*
X0185136Y0170609D01*
X0186415Y0169010D02*
X0172879Y0169010D01*
X0174477Y0167412D02*
X0216513Y0167412D01*
X0216693Y0169010D02*
X0197185Y0169010D01*
X0198464Y0170609D02*
X0217408Y0170609D01*
X0219291Y0172208D02*
X0198899Y0172208D01*
X0198726Y0173806D02*
X0218040Y0173806D01*
X0216955Y0175405D02*
X0197817Y0175405D01*
X0197861Y0177003D02*
X0216513Y0177003D01*
X0216523Y0178602D02*
X0199459Y0178602D01*
X0201058Y0180200D02*
X0217186Y0180200D01*
X0218597Y0181799D02*
X0202656Y0181799D01*
X0204255Y0183397D02*
X0218484Y0183397D01*
X0217154Y0184996D02*
X0205853Y0184996D01*
X0207452Y0186594D02*
X0216594Y0186594D01*
X0216553Y0188193D02*
X0209050Y0188193D01*
X0210649Y0189791D02*
X0217021Y0189791D01*
X0218189Y0191390D02*
X0212247Y0191390D01*
X0213846Y0192988D02*
X0219055Y0192988D01*
X0217398Y0194587D02*
X0215444Y0194587D01*
X0221600Y0194587D02*
X0222000Y0194587D01*
X0222000Y0196185D02*
X0221600Y0196185D01*
X0221600Y0192988D02*
X0222000Y0192988D01*
X0222000Y0191390D02*
X0221600Y0191390D01*
X0221600Y0189791D02*
X0222000Y0189791D01*
X0222000Y0188193D02*
X0221600Y0188193D01*
X0216785Y0165813D02*
X0176076Y0165813D01*
X0177674Y0164215D02*
X0217631Y0164215D01*
X0219830Y0162616D02*
X0179273Y0162616D01*
X0180871Y0161018D02*
X0217817Y0161018D01*
X0216862Y0159419D02*
X0182470Y0159419D01*
X0184068Y0157821D02*
X0185250Y0157821D01*
X0188350Y0157821D02*
X0216513Y0157821D01*
X0216616Y0156222D02*
X0190862Y0156222D01*
X0191870Y0154624D02*
X0217278Y0154624D01*
X0218843Y0153025D02*
X0192287Y0153025D01*
X0192285Y0151427D02*
X0218226Y0151427D01*
X0217032Y0149828D02*
X0191623Y0149828D01*
X0190267Y0148230D02*
X0216513Y0148230D01*
X0183333Y0148230D02*
X0150267Y0148230D01*
X0151623Y0149828D02*
X0181977Y0149828D01*
X0181315Y0151427D02*
X0152285Y0151427D01*
X0152287Y0153025D02*
X0181313Y0153025D01*
X0181662Y0154624D02*
X0151870Y0154624D01*
X0150862Y0156222D02*
X0180063Y0156222D01*
X0178465Y0157821D02*
X0148350Y0157821D01*
X0155317Y0125851D02*
X0079818Y0125851D01*
X0081416Y0124252D02*
X0110041Y0124252D01*
X0108082Y0122654D02*
X0083015Y0122654D01*
X0084613Y0121055D02*
X0107457Y0121055D01*
X0107457Y0114661D02*
X0081143Y0114661D01*
X0081143Y0116260D02*
X0083806Y0116260D01*
X0082207Y0117858D02*
X0081143Y0117858D01*
X0080795Y0113063D02*
X0107805Y0113063D01*
X0108961Y0111464D02*
X0079639Y0111464D01*
X0113559Y0124252D02*
X0120041Y0124252D01*
X0119340Y0123962D02*
X0118118Y0122740D01*
X0117457Y0121143D01*
X0117457Y0113904D01*
X0118118Y0112307D01*
X0119340Y0111086D01*
X0120936Y0110424D01*
X0122664Y0110424D01*
X0124260Y0111086D01*
X0125482Y0112307D01*
X0126143Y0113904D01*
X0126143Y0121143D01*
X0125482Y0122740D01*
X0124260Y0123962D01*
X0122664Y0124623D01*
X0120936Y0124623D01*
X0119340Y0123962D01*
X0118082Y0122654D02*
X0115518Y0122654D01*
X0116143Y0121055D02*
X0117457Y0121055D01*
X0117457Y0119457D02*
X0116143Y0119457D01*
X0116143Y0117858D02*
X0117457Y0117858D01*
X0117457Y0116260D02*
X0116143Y0116260D01*
X0116143Y0114661D02*
X0117457Y0114661D01*
X0117805Y0113063D02*
X0115795Y0113063D01*
X0114639Y0111464D02*
X0118961Y0111464D01*
X0124639Y0111464D02*
X0153961Y0111464D01*
X0152805Y0113063D02*
X0125795Y0113063D01*
X0126143Y0114661D02*
X0152457Y0114661D01*
X0152457Y0116260D02*
X0126143Y0116260D01*
X0126143Y0117858D02*
X0152457Y0117858D01*
X0152457Y0119457D02*
X0126143Y0119457D01*
X0126143Y0121055D02*
X0152457Y0121055D01*
X0153082Y0122654D02*
X0125518Y0122654D01*
X0123559Y0124252D02*
X0155041Y0124252D01*
X0161143Y0119457D02*
X0161711Y0119457D01*
X0161143Y0117858D02*
X0162457Y0117858D01*
X0162457Y0116260D02*
X0161143Y0116260D01*
X0161143Y0114661D02*
X0162457Y0114661D01*
X0162805Y0113063D02*
X0160795Y0113063D01*
X0159639Y0111464D02*
X0163961Y0111464D01*
X0096933Y0199382D02*
X0060474Y0199382D01*
X0060474Y0200981D02*
X0090423Y0200981D01*
X0088825Y0202579D02*
X0060474Y0202579D01*
X0060474Y0204178D02*
X0087226Y0204178D01*
X0085628Y0205776D02*
X0060474Y0205776D01*
X0060474Y0207375D02*
X0084029Y0207375D01*
X0082431Y0208973D02*
X0060474Y0208973D01*
X0060474Y0210572D02*
X0065580Y0210572D01*
X0068020Y0210572D02*
X0075580Y0210572D01*
X0078020Y0210572D02*
X0080832Y0210572D01*
X0083238Y0213769D02*
X0095626Y0213769D01*
X0095438Y0212170D02*
X0084837Y0212170D01*
X0086435Y0210572D02*
X0095936Y0210572D01*
X0097597Y0208973D02*
X0088034Y0208973D01*
X0089632Y0207375D02*
X0106118Y0207375D01*
X0106118Y0208973D02*
X0106003Y0208973D01*
X0101800Y0208973D02*
X0101800Y0208973D01*
X0101800Y0210572D02*
X0101800Y0210572D01*
X0101800Y0212170D02*
X0101800Y0212170D01*
X0101800Y0212524D02*
X0101800Y0212524D01*
X0101800Y0213769D02*
X0101800Y0213769D01*
X0101800Y0215367D02*
X0101800Y0215367D01*
X0101800Y0218564D02*
X0101800Y0218564D01*
X0101800Y0220163D02*
X0101800Y0220163D01*
X0101800Y0221761D02*
X0101800Y0221761D01*
X0101800Y0222524D02*
X0101800Y0222524D01*
X0101800Y0223360D02*
X0101800Y0223360D01*
X0101800Y0224958D02*
X0101800Y0224958D01*
X0106118Y0226557D02*
X0078911Y0226557D01*
X0080509Y0228155D02*
X0107189Y0228155D01*
X0107039Y0229754D02*
X0108788Y0229754D01*
X0108005Y0231352D02*
X0110386Y0231352D01*
X0111985Y0232951D02*
X0108162Y0232951D01*
X0107651Y0234549D02*
X0113583Y0234549D01*
X0115182Y0236148D02*
X0105824Y0236148D01*
X0104978Y0238549D02*
X0106439Y0239154D01*
X0107557Y0240272D01*
X0108162Y0241733D01*
X0108162Y0243314D01*
X0107557Y0244775D01*
X0106439Y0245893D01*
X0104978Y0246498D01*
X0098622Y0246498D01*
X0097161Y0245893D01*
X0096043Y0244775D01*
X0095438Y0243314D01*
X0095438Y0241733D01*
X0096043Y0240272D01*
X0097161Y0239154D01*
X0098622Y0238549D01*
X0104978Y0238549D01*
X0106630Y0239345D02*
X0118379Y0239345D01*
X0119977Y0240943D02*
X0107835Y0240943D01*
X0108162Y0242542D02*
X0121576Y0242542D01*
X0123174Y0244141D02*
X0107820Y0244141D01*
X0106593Y0245739D02*
X0124773Y0245739D01*
X0126371Y0247338D02*
X0044945Y0247338D01*
X0043347Y0248936D02*
X0097687Y0248936D01*
X0095934Y0250535D02*
X0041748Y0250535D01*
X0040150Y0252133D02*
X0095438Y0252133D01*
X0095611Y0253732D02*
X0038551Y0253732D01*
X0036953Y0255330D02*
X0096598Y0255330D01*
X0097007Y0245739D02*
X0046544Y0245739D01*
X0048142Y0244141D02*
X0095780Y0244141D01*
X0095438Y0242542D02*
X0049741Y0242542D01*
X0051339Y0240943D02*
X0095765Y0240943D01*
X0096970Y0239345D02*
X0052938Y0239345D01*
X0054536Y0237746D02*
X0116780Y0237746D01*
X0105913Y0248936D02*
X0127687Y0248936D01*
X0125934Y0250535D02*
X0107666Y0250535D01*
X0107002Y0255330D02*
X0126598Y0255330D01*
X0137002Y0255330D02*
X0139876Y0255330D01*
X0141474Y0256929D02*
X0080103Y0256929D01*
X0080482Y0257307D02*
X0081143Y0258904D01*
X0081143Y0266143D01*
X0080482Y0267740D01*
X0079260Y0268962D01*
X0077664Y0269623D01*
X0075936Y0269623D01*
X0074340Y0268962D01*
X0073118Y0267740D01*
X0072457Y0266143D01*
X0072457Y0258904D01*
X0073118Y0257307D01*
X0074340Y0256086D01*
X0075936Y0255424D01*
X0077664Y0255424D01*
X0079260Y0256086D01*
X0080482Y0257307D01*
X0080987Y0258527D02*
X0143073Y0258527D01*
X0144671Y0260126D02*
X0081143Y0260126D01*
X0081143Y0261724D02*
X0146270Y0261724D01*
X0146465Y0263323D02*
X0081143Y0263323D01*
X0081143Y0264921D02*
X0146465Y0264921D01*
X0146465Y0266520D02*
X0080987Y0266520D01*
X0080104Y0268118D02*
X0146465Y0268118D01*
X0146465Y0269717D02*
X0043039Y0269717D01*
X0044637Y0268118D02*
X0063496Y0268118D01*
X0062613Y0266520D02*
X0046236Y0266520D01*
X0043829Y0263323D02*
X0035077Y0263323D01*
X0035077Y0261724D02*
X0045428Y0261724D01*
X0042231Y0264921D02*
X0036445Y0264921D01*
X0037087Y0266520D02*
X0040632Y0266520D01*
X0039034Y0268118D02*
X0037087Y0268118D01*
X0037435Y0269717D02*
X0036615Y0269717D01*
X0035837Y0271315D02*
X0035486Y0271315D01*
X0038243Y0274512D02*
X0149962Y0274512D01*
X0149425Y0276111D02*
X0036938Y0276111D01*
X0037087Y0277709D02*
X0147072Y0277709D01*
X0146465Y0279308D02*
X0036784Y0279308D01*
X0035895Y0280906D02*
X0146465Y0280906D01*
X0146465Y0282505D02*
X0033591Y0282505D01*
X0030009Y0282505D02*
X0025714Y0282505D01*
X0024581Y0280906D02*
X0027705Y0280906D01*
X0026816Y0279308D02*
X0024581Y0279308D01*
X0024581Y0277709D02*
X0026513Y0277709D01*
X0026662Y0276111D02*
X0024581Y0276111D01*
X0024581Y0274512D02*
X0027334Y0274512D01*
X0029113Y0272914D02*
X0024581Y0272914D01*
X0024581Y0271315D02*
X0028114Y0271315D01*
X0026985Y0269717D02*
X0024581Y0269717D01*
X0024581Y0268118D02*
X0026513Y0268118D01*
X0026513Y0266520D02*
X0024581Y0266520D01*
X0024581Y0264921D02*
X0027155Y0264921D01*
X0028523Y0263323D02*
X0024581Y0263323D01*
X0024581Y0261724D02*
X0028523Y0261724D01*
X0027155Y0260126D02*
X0024581Y0260126D01*
X0024581Y0258527D02*
X0026513Y0258527D01*
X0026513Y0256929D02*
X0024581Y0256929D01*
X0024581Y0255330D02*
X0026986Y0255330D01*
X0028115Y0253732D02*
X0024581Y0253732D01*
X0024581Y0252133D02*
X0029112Y0252133D01*
X0027333Y0250535D02*
X0024581Y0250535D01*
X0024581Y0248936D02*
X0026662Y0248936D01*
X0026513Y0247338D02*
X0024581Y0247338D01*
X0024581Y0245739D02*
X0026816Y0245739D01*
X0027706Y0244141D02*
X0024581Y0244141D01*
X0024581Y0242542D02*
X0030010Y0242542D01*
X0027742Y0240943D02*
X0024581Y0240943D01*
X0024581Y0239345D02*
X0026831Y0239345D01*
X0026513Y0237746D02*
X0024581Y0237746D01*
X0024581Y0236148D02*
X0026647Y0236148D01*
X0027309Y0234549D02*
X0024581Y0234549D01*
X0024581Y0232951D02*
X0029023Y0232951D01*
X0028151Y0231352D02*
X0024581Y0231352D01*
X0024581Y0229754D02*
X0027001Y0229754D01*
X0026513Y0228155D02*
X0024581Y0228155D01*
X0024581Y0226557D02*
X0026513Y0226557D01*
X0027140Y0224958D02*
X0024581Y0224958D01*
X0024581Y0223360D02*
X0028486Y0223360D01*
X0028560Y0221761D02*
X0024581Y0221761D01*
X0024581Y0220163D02*
X0027170Y0220163D01*
X0026513Y0218564D02*
X0024581Y0218564D01*
X0024581Y0216966D02*
X0026513Y0216966D01*
X0026970Y0215367D02*
X0024581Y0215367D01*
X0024581Y0213769D02*
X0025873Y0213769D01*
X0056135Y0236148D02*
X0097776Y0236148D01*
X0095949Y0234549D02*
X0057733Y0234549D01*
X0059332Y0232951D02*
X0079701Y0232951D01*
X0078103Y0231352D02*
X0060474Y0231352D01*
X0060474Y0229754D02*
X0076504Y0229754D01*
X0074906Y0228155D02*
X0060474Y0228155D01*
X0060474Y0226557D02*
X0073307Y0226557D01*
X0071709Y0224958D02*
X0060474Y0224958D01*
X0060474Y0223360D02*
X0063738Y0223360D01*
X0062713Y0221761D02*
X0060474Y0221761D01*
X0060474Y0220163D02*
X0062457Y0220163D01*
X0062457Y0218564D02*
X0060474Y0218564D01*
X0060474Y0216966D02*
X0062457Y0216966D01*
X0062457Y0215367D02*
X0060474Y0215367D01*
X0060474Y0213769D02*
X0062513Y0213769D01*
X0063255Y0212170D02*
X0060474Y0212170D01*
X0070345Y0212170D02*
X0073255Y0212170D01*
X0072513Y0213769D02*
X0071087Y0213769D01*
X0071143Y0215367D02*
X0072457Y0215367D01*
X0072457Y0216966D02*
X0071143Y0216966D01*
X0071143Y0218564D02*
X0072457Y0218564D01*
X0070110Y0223360D02*
X0069862Y0223360D01*
X0077312Y0224958D02*
X0096259Y0224958D01*
X0095526Y0223360D02*
X0079862Y0223360D01*
X0080887Y0221761D02*
X0095512Y0221761D01*
X0096210Y0220163D02*
X0081143Y0220163D01*
X0081143Y0218564D02*
X0098943Y0218564D01*
X0096635Y0215367D02*
X0081640Y0215367D01*
X0081143Y0216966D02*
X0106118Y0216966D01*
X0106118Y0218564D02*
X0104657Y0218564D01*
X0096561Y0229754D02*
X0082108Y0229754D01*
X0091231Y0205776D02*
X0097044Y0205776D01*
X0090635Y0173806D02*
X0079416Y0173806D01*
X0080703Y0172208D02*
X0089037Y0172208D01*
X0087438Y0170609D02*
X0081143Y0170609D01*
X0074184Y0173806D02*
X0069335Y0173806D01*
X0069076Y0173994D02*
X0068467Y0174305D01*
X0067817Y0174516D01*
X0067142Y0174623D01*
X0066984Y0174623D01*
X0066984Y0167708D01*
X0071143Y0167708D01*
X0071143Y0170621D01*
X0071036Y0171297D01*
X0070825Y0171947D01*
X0070515Y0172556D01*
X0070113Y0173109D01*
X0069629Y0173592D01*
X0069076Y0173994D01*
X0066984Y0173806D02*
X0066616Y0173806D01*
X0066616Y0172208D02*
X0066984Y0172208D01*
X0066984Y0170609D02*
X0066616Y0170609D01*
X0066616Y0169010D02*
X0066984Y0169010D01*
X0066984Y0167412D02*
X0072457Y0167412D01*
X0072457Y0169010D02*
X0071143Y0169010D01*
X0071143Y0170609D02*
X0072457Y0170609D01*
X0072897Y0172208D02*
X0070692Y0172208D01*
X0071143Y0165813D02*
X0072457Y0165813D01*
X0072457Y0164215D02*
X0071110Y0164215D01*
X0070578Y0162616D02*
X0072990Y0162616D01*
X0074503Y0161018D02*
X0069008Y0161018D01*
X0063022Y0162616D02*
X0044891Y0162616D01*
X0046490Y0164215D02*
X0062490Y0164215D01*
X0062457Y0165813D02*
X0048088Y0165813D01*
X0037087Y0256929D02*
X0063497Y0256929D01*
X0062613Y0258527D02*
X0037087Y0258527D01*
X0036445Y0260126D02*
X0062457Y0260126D01*
X0070103Y0256929D02*
X0073497Y0256929D01*
X0072613Y0258527D02*
X0070987Y0258527D01*
X0071143Y0260126D02*
X0072457Y0260126D01*
X0072457Y0261724D02*
X0071143Y0261724D01*
X0071143Y0263323D02*
X0072457Y0263323D01*
X0072457Y0264921D02*
X0071143Y0264921D01*
X0070987Y0266520D02*
X0072613Y0266520D01*
X0073496Y0268118D02*
X0070104Y0268118D01*
X0073911Y0285702D02*
X0146465Y0285702D01*
X0146465Y0284103D02*
X0027313Y0284103D01*
X0039842Y0272914D02*
X0151561Y0272914D01*
X0146465Y0271315D02*
X0041440Y0271315D01*
X0075510Y0287300D02*
X0147035Y0287300D01*
X0155369Y0287300D02*
X0158231Y0287300D01*
X0157661Y0285702D02*
X0155939Y0285702D01*
X0155939Y0284103D02*
X0157661Y0284103D01*
X0161624Y0285702D02*
X0163173Y0285702D01*
X0163173Y0287300D02*
X0161624Y0287300D01*
X0166565Y0287300D02*
X0218090Y0287300D01*
X0219689Y0285702D02*
X0167135Y0285702D01*
X0163173Y0280906D02*
X0161624Y0280906D01*
X0161624Y0279308D02*
X0163173Y0279308D01*
X0163173Y0277709D02*
X0161624Y0277709D01*
X0157428Y0248936D02*
X0155939Y0248936D01*
X0155939Y0247338D02*
X0157661Y0247338D01*
X0157661Y0245739D02*
X0155939Y0245739D01*
X0155939Y0244141D02*
X0157661Y0244141D01*
X0158436Y0242542D02*
X0155164Y0242542D01*
X0147239Y0242542D02*
X0142140Y0242542D01*
X0143738Y0244141D02*
X0146465Y0244141D01*
X0138277Y0253732D02*
X0137989Y0253732D01*
X0138005Y0231352D02*
X0146465Y0231352D01*
X0146465Y0229754D02*
X0137039Y0229754D01*
X0136568Y0228155D02*
X0146465Y0228155D01*
X0146465Y0226557D02*
X0138167Y0226557D01*
X0139765Y0224958D02*
X0146465Y0224958D01*
X0146465Y0223360D02*
X0141364Y0223360D01*
X0138957Y0220163D02*
X0137390Y0220163D01*
X0197278Y0240943D02*
X0202654Y0240943D01*
X0218742Y0212170D02*
X0219201Y0212170D01*
X0216492Y0288899D02*
X0077108Y0288899D01*
X0078707Y0290497D02*
X0214893Y0290497D01*
X0213295Y0292096D02*
X0080305Y0292096D01*
X0081904Y0293694D02*
X0211696Y0293694D01*
D17*
X0058493Y0189256D03*
M02*
