G75*
%MOIN*%
%OFA0B0*%
%FSLAX25Y25*%
%IPPOS*%
%LPD*%
%AMOC8*
5,1,8,0,0,1.08239X$1,22.5*
%
%ADD10C,0.07800*%
%ADD11C,0.04775*%
%ADD12C,0.07400*%
%ADD13C,0.05512*%
%ADD14C,0.00787*%
%ADD15C,0.01600*%
%ADD16C,0.03543*%
D10*
X0146800Y0152524D03*
X0186800Y0152524D03*
D11*
X0134187Y0182524D02*
X0129413Y0182524D01*
X0129413Y0192524D02*
X0134187Y0192524D01*
X0134187Y0202524D02*
X0129413Y0202524D01*
X0129413Y0212524D02*
X0134187Y0212524D01*
X0134187Y0222524D02*
X0129413Y0222524D01*
X0129413Y0232524D02*
X0134187Y0232524D01*
X0134187Y0242524D02*
X0129413Y0242524D01*
X0129413Y0252524D02*
X0134187Y0252524D01*
X0104187Y0252524D02*
X0099413Y0252524D01*
X0099413Y0242524D02*
X0104187Y0242524D01*
X0104187Y0232524D02*
X0099413Y0232524D01*
X0099413Y0222524D02*
X0104187Y0222524D01*
X0104187Y0212524D02*
X0099413Y0212524D01*
X0099413Y0202524D02*
X0104187Y0202524D01*
X0104187Y0192524D02*
X0099413Y0192524D01*
X0099413Y0182524D02*
X0104187Y0182524D01*
D12*
X0031800Y0182524D03*
X0031800Y0192524D03*
X0031800Y0207524D03*
X0031800Y0217524D03*
X0031800Y0227524D03*
X0031800Y0237524D03*
X0031800Y0247524D03*
X0031800Y0257524D03*
X0031800Y0267524D03*
X0031800Y0277524D03*
X0031800Y0172524D03*
X0031800Y0162524D03*
X0031800Y0152524D03*
X0031800Y0142524D03*
X0031800Y0132524D03*
X0031800Y0122524D03*
X0031800Y0112524D03*
X0031800Y0102524D03*
X0221800Y0137524D03*
X0221800Y0147524D03*
X0221800Y0157524D03*
X0221800Y0167524D03*
X0221800Y0177524D03*
X0221800Y0187524D03*
X0221800Y0197524D03*
X0221800Y0207524D03*
X0221800Y0227524D03*
X0221800Y0237524D03*
X0221800Y0247524D03*
X0221800Y0257524D03*
X0221800Y0267524D03*
X0221800Y0277524D03*
D13*
X0194556Y0277524D02*
X0189044Y0277524D01*
X0189044Y0267524D02*
X0194556Y0267524D01*
X0194556Y0257524D02*
X0189044Y0257524D01*
X0189044Y0247524D02*
X0194556Y0247524D01*
X0194556Y0237524D02*
X0189044Y0237524D01*
X0189044Y0212524D02*
X0194556Y0212524D01*
X0194556Y0202524D02*
X0189044Y0202524D01*
X0189044Y0192524D02*
X0194556Y0192524D01*
X0194556Y0182524D02*
X0189044Y0182524D01*
X0189044Y0172524D02*
X0194556Y0172524D01*
X0161800Y0194768D02*
X0161800Y0200280D01*
X0151800Y0200280D02*
X0151800Y0194768D01*
X0121800Y0155280D02*
X0121800Y0149768D01*
X0111800Y0149768D02*
X0111800Y0155280D01*
X0111800Y0120280D02*
X0111800Y0114768D01*
X0121800Y0114768D02*
X0121800Y0120280D01*
X0156800Y0120280D02*
X0156800Y0114768D01*
X0166800Y0114768D02*
X0166800Y0120280D01*
X0176800Y0120280D02*
X0176800Y0114768D01*
X0186800Y0114768D02*
X0186800Y0120280D01*
X0076800Y0120280D02*
X0076800Y0114768D01*
X0066800Y0114768D02*
X0066800Y0120280D01*
X0066800Y0164768D02*
X0066800Y0170280D01*
X0076800Y0170280D02*
X0076800Y0164768D01*
X0076800Y0214768D02*
X0076800Y0220280D01*
X0066800Y0220280D02*
X0066800Y0214768D01*
X0066800Y0259768D02*
X0066800Y0265280D01*
X0076800Y0265280D02*
X0076800Y0259768D01*
D14*
X0076800Y0262524D02*
X0076603Y0263272D01*
X0075028Y0263272D01*
X0068729Y0269571D01*
X0034083Y0269571D01*
X0032509Y0267996D01*
X0031800Y0267524D01*
X0031800Y0247524D02*
X0104950Y0247524D01*
X0109674Y0242799D01*
X0131721Y0242799D01*
X0131800Y0242524D01*
X0131800Y0252524D02*
X0132509Y0253035D01*
X0146682Y0267209D01*
X0184477Y0267209D01*
X0184477Y0209728D01*
X0191564Y0202642D01*
X0191800Y0202524D01*
X0191564Y0201854D01*
X0147469Y0157760D01*
X0147469Y0153035D01*
X0146800Y0152524D01*
X0158493Y0145161D02*
X0108099Y0145161D01*
X0060855Y0192406D01*
X0032509Y0192406D01*
X0031800Y0192524D01*
X0031800Y0182524D02*
X0032509Y0182169D01*
X0056131Y0158547D01*
X0080540Y0158547D01*
X0121485Y0117602D01*
X0121800Y0117524D01*
X0130146Y0117602D02*
X0087627Y0160122D01*
X0075816Y0160122D01*
X0071091Y0164846D01*
X0071091Y0176657D01*
X0058493Y0189256D01*
X0050619Y0208941D02*
X0032509Y0227051D01*
X0031800Y0227524D01*
X0034083Y0232563D02*
X0029359Y0232563D01*
X0024635Y0227839D01*
X0024635Y0170358D01*
X0031721Y0163272D01*
X0031800Y0162524D01*
X0034083Y0177445D02*
X0029359Y0177445D01*
X0026209Y0180594D01*
X0026209Y0201854D01*
X0031721Y0207366D01*
X0031800Y0207524D01*
X0050619Y0208941D02*
X0103375Y0208941D01*
X0119123Y0193193D01*
X0131721Y0193193D01*
X0131800Y0192524D01*
X0131800Y0202524D02*
X0132509Y0202642D01*
X0148257Y0202642D01*
X0149831Y0204217D01*
X0155343Y0204217D01*
X0161643Y0197917D01*
X0161800Y0197524D01*
X0191800Y0202524D02*
X0192351Y0201854D01*
X0197863Y0201854D01*
X0221485Y0178232D01*
X0221800Y0177524D01*
X0186800Y0117524D02*
X0186052Y0117602D01*
X0158493Y0145161D01*
X0156131Y0117602D02*
X0156800Y0117524D01*
X0156131Y0117602D02*
X0130146Y0117602D01*
X0101013Y0110516D02*
X0034083Y0177445D01*
X0034083Y0232563D02*
X0043532Y0242012D01*
X0101800Y0242012D01*
X0101800Y0242524D01*
X0184477Y0267209D02*
X0191564Y0267209D01*
X0191800Y0267524D01*
X0176800Y0117524D02*
X0176603Y0116815D01*
X0175028Y0116815D01*
X0168729Y0110516D01*
X0101013Y0110516D01*
D15*
X0024581Y0075305D02*
X0024581Y0167610D01*
X0027129Y0165063D01*
X0026513Y0163575D01*
X0026513Y0161472D01*
X0027318Y0159529D01*
X0028805Y0158041D01*
X0030054Y0157524D01*
X0028805Y0157006D01*
X0027318Y0155519D01*
X0026513Y0153575D01*
X0026513Y0151472D01*
X0027318Y0149529D01*
X0028805Y0148041D01*
X0030054Y0147524D01*
X0028805Y0147006D01*
X0027318Y0145519D01*
X0026513Y0143575D01*
X0026513Y0141472D01*
X0027318Y0139529D01*
X0028805Y0138041D01*
X0030065Y0137519D01*
X0029770Y0137424D01*
X0029029Y0137046D01*
X0028355Y0136557D01*
X0027767Y0135968D01*
X0027278Y0135295D01*
X0026900Y0134553D01*
X0026643Y0133762D01*
X0026513Y0132940D01*
X0026513Y0132724D01*
X0031600Y0132724D01*
X0031600Y0132324D01*
X0026513Y0132324D01*
X0026513Y0132107D01*
X0026643Y0131285D01*
X0026900Y0130494D01*
X0027278Y0129752D01*
X0027767Y0129079D01*
X0028355Y0128491D01*
X0029029Y0128001D01*
X0029770Y0127624D01*
X0030065Y0127528D01*
X0028805Y0127006D01*
X0027318Y0125519D01*
X0026513Y0123575D01*
X0026513Y0121472D01*
X0027318Y0119529D01*
X0028805Y0118041D01*
X0030054Y0117524D01*
X0028805Y0117006D01*
X0027318Y0115519D01*
X0026513Y0113575D01*
X0026513Y0111472D01*
X0027318Y0109529D01*
X0028805Y0108041D01*
X0030054Y0107524D01*
X0028805Y0107006D01*
X0027318Y0105519D01*
X0026513Y0103575D01*
X0026513Y0101472D01*
X0027318Y0099529D01*
X0028805Y0098041D01*
X0030748Y0097236D01*
X0032852Y0097236D01*
X0034795Y0098041D01*
X0036282Y0099529D01*
X0037087Y0101472D01*
X0037087Y0103575D01*
X0036282Y0105519D01*
X0034795Y0107006D01*
X0033546Y0107524D01*
X0034795Y0108041D01*
X0036282Y0109529D01*
X0037087Y0111472D01*
X0037087Y0113575D01*
X0036282Y0115519D01*
X0034795Y0117006D01*
X0033546Y0117524D01*
X0034795Y0118041D01*
X0036282Y0119529D01*
X0037087Y0121472D01*
X0037087Y0123575D01*
X0036282Y0125519D01*
X0034795Y0127006D01*
X0033535Y0127528D01*
X0033830Y0127624D01*
X0034571Y0128001D01*
X0035245Y0128491D01*
X0035833Y0129079D01*
X0036322Y0129752D01*
X0036700Y0130494D01*
X0036957Y0131285D01*
X0037087Y0132107D01*
X0037087Y0132324D01*
X0032000Y0132324D01*
X0032000Y0132724D01*
X0037087Y0132724D01*
X0037087Y0132940D01*
X0036957Y0133762D01*
X0036700Y0134553D01*
X0036322Y0135295D01*
X0035833Y0135968D01*
X0035245Y0136557D01*
X0034571Y0137046D01*
X0033830Y0137424D01*
X0033535Y0137519D01*
X0034795Y0138041D01*
X0036282Y0139529D01*
X0037087Y0141472D01*
X0037087Y0143575D01*
X0036282Y0145519D01*
X0034795Y0147006D01*
X0033546Y0147524D01*
X0034795Y0148041D01*
X0036282Y0149529D01*
X0037087Y0151472D01*
X0037087Y0153575D01*
X0036282Y0155519D01*
X0034795Y0157006D01*
X0033546Y0157524D01*
X0034795Y0158041D01*
X0036282Y0159529D01*
X0037087Y0161472D01*
X0037087Y0163575D01*
X0036282Y0165519D01*
X0034795Y0167006D01*
X0033546Y0167524D01*
X0034795Y0168041D01*
X0036282Y0169529D01*
X0037087Y0171472D01*
X0037087Y0171639D01*
X0100192Y0108535D01*
X0169550Y0108535D01*
X0170710Y0109695D01*
X0173220Y0112205D01*
X0174340Y0111086D01*
X0175936Y0110424D01*
X0177664Y0110424D01*
X0179260Y0111086D01*
X0180482Y0112307D01*
X0181143Y0113904D01*
X0181143Y0119709D01*
X0182457Y0118396D01*
X0182457Y0113904D01*
X0183118Y0112307D01*
X0184340Y0111086D01*
X0185936Y0110424D01*
X0187664Y0110424D01*
X0189260Y0111086D01*
X0190482Y0112307D01*
X0191143Y0113904D01*
X0191143Y0121143D01*
X0190482Y0122740D01*
X0189260Y0123962D01*
X0187664Y0124623D01*
X0185936Y0124623D01*
X0184340Y0123962D01*
X0183417Y0123039D01*
X0160474Y0145982D01*
X0159314Y0147143D01*
X0148148Y0147143D01*
X0149908Y0147872D01*
X0151452Y0149415D01*
X0152287Y0151432D01*
X0152287Y0153615D01*
X0151452Y0155632D01*
X0149908Y0157176D01*
X0149752Y0157241D01*
X0184701Y0192190D01*
X0184701Y0191660D01*
X0185362Y0190063D01*
X0186584Y0188842D01*
X0188180Y0188180D01*
X0195420Y0188180D01*
X0197016Y0188842D01*
X0198238Y0190063D01*
X0198899Y0191660D01*
X0198899Y0193388D01*
X0198238Y0194984D01*
X0197016Y0196206D01*
X0195420Y0196867D01*
X0189378Y0196867D01*
X0190691Y0198180D01*
X0195420Y0198180D01*
X0197016Y0198842D01*
X0197545Y0199370D01*
X0217048Y0179868D01*
X0216513Y0178575D01*
X0216513Y0176472D01*
X0217318Y0174529D01*
X0218805Y0173041D01*
X0220054Y0172524D01*
X0218805Y0172006D01*
X0217318Y0170519D01*
X0216513Y0168575D01*
X0216513Y0166472D01*
X0217318Y0164529D01*
X0218805Y0163041D01*
X0220054Y0162524D01*
X0218805Y0162006D01*
X0217318Y0160519D01*
X0216513Y0158575D01*
X0216513Y0156472D01*
X0217318Y0154529D01*
X0218805Y0153041D01*
X0220054Y0152524D01*
X0218805Y0152006D01*
X0217318Y0150519D01*
X0216513Y0148575D01*
X0216513Y0146472D01*
X0217318Y0144529D01*
X0218805Y0143041D01*
X0220054Y0142524D01*
X0218805Y0142006D01*
X0217318Y0140519D01*
X0216513Y0138575D01*
X0216513Y0136472D01*
X0217318Y0134529D01*
X0218805Y0133041D01*
X0220748Y0132236D01*
X0222852Y0132236D01*
X0224795Y0133041D01*
X0226282Y0134529D01*
X0227087Y0136472D01*
X0227087Y0138575D01*
X0226282Y0140519D01*
X0224795Y0142006D01*
X0223546Y0142524D01*
X0224795Y0143041D01*
X0226282Y0144529D01*
X0227087Y0146472D01*
X0227087Y0148575D01*
X0226282Y0150519D01*
X0224795Y0152006D01*
X0223546Y0152524D01*
X0224795Y0153041D01*
X0226282Y0154529D01*
X0227087Y0156472D01*
X0227087Y0158575D01*
X0226282Y0160519D01*
X0224795Y0162006D01*
X0223546Y0162524D01*
X0224795Y0163041D01*
X0226282Y0164529D01*
X0227087Y0166472D01*
X0227087Y0168575D01*
X0226282Y0170519D01*
X0224795Y0172006D01*
X0223546Y0172524D01*
X0224795Y0173041D01*
X0226282Y0174529D01*
X0227087Y0176472D01*
X0227087Y0178575D01*
X0226282Y0180519D01*
X0224795Y0182006D01*
X0223535Y0182528D01*
X0223830Y0182624D01*
X0224571Y0183001D01*
X0225245Y0183491D01*
X0225833Y0184079D01*
X0226322Y0184752D01*
X0226700Y0185494D01*
X0226957Y0186285D01*
X0227087Y0187107D01*
X0227087Y0187324D01*
X0222000Y0187324D01*
X0222000Y0187724D01*
X0221600Y0187724D01*
X0221600Y0197324D01*
X0216513Y0197324D01*
X0216513Y0197107D01*
X0216643Y0196285D01*
X0216900Y0195494D01*
X0217278Y0194752D01*
X0217767Y0194079D01*
X0218355Y0193491D01*
X0219029Y0193001D01*
X0219770Y0192624D01*
X0220078Y0192524D01*
X0219770Y0192424D01*
X0219029Y0192046D01*
X0218355Y0191557D01*
X0217767Y0190968D01*
X0217278Y0190295D01*
X0216900Y0189553D01*
X0216643Y0188762D01*
X0216513Y0187940D01*
X0216513Y0187724D01*
X0221600Y0187724D01*
X0221600Y0187324D01*
X0216513Y0187324D01*
X0216513Y0187107D01*
X0216643Y0186285D01*
X0216840Y0185679D01*
X0198735Y0203784D01*
X0198238Y0204984D01*
X0197016Y0206206D01*
X0195420Y0206867D01*
X0190140Y0206867D01*
X0188827Y0208180D01*
X0191616Y0208180D01*
X0191616Y0212339D01*
X0191984Y0212339D01*
X0191984Y0208180D01*
X0194898Y0208180D01*
X0195573Y0208287D01*
X0196223Y0208499D01*
X0196832Y0208809D01*
X0197385Y0209211D01*
X0197869Y0209694D01*
X0198271Y0210247D01*
X0198581Y0210856D01*
X0198792Y0211507D01*
X0198899Y0212182D01*
X0198899Y0212339D01*
X0191984Y0212339D01*
X0191984Y0212708D01*
X0191616Y0212708D01*
X0191616Y0216867D01*
X0188702Y0216867D01*
X0188027Y0216760D01*
X0187377Y0216549D01*
X0186768Y0216238D01*
X0186458Y0216014D01*
X0186458Y0233967D01*
X0186584Y0233842D01*
X0188180Y0233180D01*
X0195420Y0233180D01*
X0197016Y0233842D01*
X0198238Y0235063D01*
X0198899Y0236660D01*
X0198899Y0238388D01*
X0198238Y0239984D01*
X0197016Y0241206D01*
X0195420Y0241867D01*
X0188180Y0241867D01*
X0186584Y0241206D01*
X0186458Y0241080D01*
X0186458Y0243967D01*
X0186584Y0243842D01*
X0188180Y0243180D01*
X0195420Y0243180D01*
X0197016Y0243842D01*
X0198238Y0245063D01*
X0198899Y0246660D01*
X0198899Y0248388D01*
X0198238Y0249984D01*
X0197016Y0251206D01*
X0195420Y0251867D01*
X0188180Y0251867D01*
X0186584Y0251206D01*
X0186458Y0251080D01*
X0186458Y0253967D01*
X0186584Y0253842D01*
X0188180Y0253180D01*
X0195420Y0253180D01*
X0197016Y0253842D01*
X0198238Y0255063D01*
X0198899Y0256660D01*
X0198899Y0258388D01*
X0198238Y0259984D01*
X0197016Y0261206D01*
X0195420Y0261867D01*
X0188180Y0261867D01*
X0186584Y0261206D01*
X0186458Y0261080D01*
X0186458Y0263967D01*
X0186584Y0263842D01*
X0188180Y0263180D01*
X0195420Y0263180D01*
X0197016Y0263842D01*
X0198238Y0265063D01*
X0198899Y0266660D01*
X0198899Y0268388D01*
X0198238Y0269984D01*
X0197016Y0271206D01*
X0195420Y0271867D01*
X0188180Y0271867D01*
X0186584Y0271206D01*
X0185362Y0269984D01*
X0185033Y0269190D01*
X0145861Y0269190D01*
X0133170Y0256498D01*
X0128622Y0256498D01*
X0127161Y0255893D01*
X0126043Y0254775D01*
X0125438Y0253314D01*
X0125438Y0251733D01*
X0126043Y0250272D01*
X0127161Y0249154D01*
X0128622Y0248549D01*
X0134978Y0248549D01*
X0136439Y0249154D01*
X0137557Y0250272D01*
X0138162Y0251733D01*
X0138162Y0253314D01*
X0137557Y0254775D01*
X0137304Y0255029D01*
X0147502Y0265228D01*
X0182496Y0265228D01*
X0182496Y0208908D01*
X0185891Y0205513D01*
X0185362Y0204984D01*
X0184701Y0203388D01*
X0184701Y0201660D01*
X0185362Y0200063D01*
X0186167Y0199259D01*
X0145488Y0158580D01*
X0145488Y0157920D01*
X0143692Y0157176D01*
X0142148Y0155632D01*
X0141313Y0153615D01*
X0141313Y0151432D01*
X0142148Y0149415D01*
X0143692Y0147872D01*
X0145452Y0147143D01*
X0125317Y0147143D01*
X0125482Y0147307D01*
X0126143Y0148904D01*
X0126143Y0156143D01*
X0125482Y0157740D01*
X0124260Y0158962D01*
X0122664Y0159623D01*
X0120936Y0159623D01*
X0119340Y0158962D01*
X0118118Y0157740D01*
X0117457Y0156143D01*
X0117457Y0148904D01*
X0118118Y0147307D01*
X0118283Y0147143D01*
X0115261Y0147143D01*
X0115515Y0147491D01*
X0115825Y0148100D01*
X0116036Y0148751D01*
X0116143Y0149426D01*
X0116143Y0152339D01*
X0111984Y0152339D01*
X0111984Y0152708D01*
X0111616Y0152708D01*
X0111616Y0159623D01*
X0111458Y0159623D01*
X0110783Y0159516D01*
X0110133Y0159305D01*
X0109524Y0158994D01*
X0108971Y0158592D01*
X0108487Y0158109D01*
X0108085Y0157556D01*
X0107775Y0156947D01*
X0107564Y0156297D01*
X0107457Y0155621D01*
X0107457Y0152708D01*
X0111616Y0152708D01*
X0111616Y0152339D01*
X0107457Y0152339D01*
X0107457Y0149426D01*
X0107564Y0148751D01*
X0107685Y0148377D01*
X0062836Y0193226D01*
X0061676Y0194387D01*
X0036751Y0194387D01*
X0036282Y0195519D01*
X0034795Y0197006D01*
X0032852Y0197811D01*
X0030748Y0197811D01*
X0028805Y0197006D01*
X0028191Y0196392D01*
X0028191Y0201034D01*
X0029790Y0202633D01*
X0030748Y0202236D01*
X0032852Y0202236D01*
X0034795Y0203041D01*
X0036282Y0204529D01*
X0037087Y0206472D01*
X0037087Y0208575D01*
X0036282Y0210519D01*
X0034795Y0212006D01*
X0033546Y0212524D01*
X0034795Y0213041D01*
X0036282Y0214529D01*
X0037087Y0216472D01*
X0037087Y0218575D01*
X0036313Y0220445D01*
X0049798Y0206960D01*
X0102554Y0206960D01*
X0103016Y0206498D01*
X0098622Y0206498D01*
X0097161Y0205893D01*
X0096043Y0204775D01*
X0095438Y0203314D01*
X0095438Y0201733D01*
X0096043Y0200272D01*
X0097161Y0199154D01*
X0098622Y0198549D01*
X0104978Y0198549D01*
X0106439Y0199154D01*
X0107557Y0200272D01*
X0108051Y0201463D01*
X0118302Y0191212D01*
X0125654Y0191212D01*
X0126043Y0190272D01*
X0127161Y0189154D01*
X0128622Y0188549D01*
X0134978Y0188549D01*
X0136439Y0189154D01*
X0137557Y0190272D01*
X0138162Y0191733D01*
X0138162Y0193314D01*
X0137557Y0194775D01*
X0136439Y0195893D01*
X0134978Y0196498D01*
X0128622Y0196498D01*
X0127161Y0195893D01*
X0126442Y0195174D01*
X0119943Y0195174D01*
X0106098Y0209020D01*
X0106721Y0209436D01*
X0107275Y0209990D01*
X0107710Y0210641D01*
X0108009Y0211364D01*
X0108162Y0212132D01*
X0108162Y0212524D01*
X0108162Y0212915D01*
X0108009Y0213683D01*
X0107710Y0214406D01*
X0107275Y0215057D01*
X0106721Y0215611D01*
X0106070Y0216046D01*
X0105347Y0216346D01*
X0104579Y0216498D01*
X0101800Y0216498D01*
X0099021Y0216498D01*
X0098253Y0216346D01*
X0097530Y0216046D01*
X0096879Y0215611D01*
X0096325Y0215057D01*
X0095890Y0214406D01*
X0095591Y0213683D01*
X0095438Y0212915D01*
X0095438Y0212524D01*
X0101800Y0212524D01*
X0101800Y0216498D01*
X0101800Y0212524D01*
X0101800Y0212524D01*
X0108162Y0212524D01*
X0101800Y0212524D01*
X0101800Y0212524D01*
X0101800Y0212524D01*
X0095438Y0212524D01*
X0095438Y0212132D01*
X0095591Y0211364D01*
X0095774Y0210922D01*
X0078865Y0210922D01*
X0079260Y0211086D01*
X0080482Y0212307D01*
X0081143Y0213904D01*
X0081143Y0221143D01*
X0080482Y0222740D01*
X0079260Y0223962D01*
X0077664Y0224623D01*
X0075936Y0224623D01*
X0074340Y0223962D01*
X0073118Y0222740D01*
X0072457Y0221143D01*
X0072457Y0213904D01*
X0073118Y0212307D01*
X0074340Y0211086D01*
X0074735Y0210922D01*
X0068865Y0210922D01*
X0069260Y0211086D01*
X0070482Y0212307D01*
X0071143Y0213904D01*
X0071143Y0221143D01*
X0070482Y0222740D01*
X0069260Y0223962D01*
X0067664Y0224623D01*
X0065936Y0224623D01*
X0064340Y0223962D01*
X0063118Y0222740D01*
X0062457Y0221143D01*
X0062457Y0213904D01*
X0063118Y0212307D01*
X0064340Y0211086D01*
X0064735Y0210922D01*
X0051439Y0210922D01*
X0036737Y0225625D01*
X0037087Y0226472D01*
X0037087Y0228575D01*
X0036282Y0230519D01*
X0035562Y0231239D01*
X0036065Y0231742D01*
X0044353Y0240031D01*
X0096284Y0240031D01*
X0097161Y0239154D01*
X0098622Y0238549D01*
X0104978Y0238549D01*
X0106439Y0239154D01*
X0107557Y0240272D01*
X0108097Y0241575D01*
X0108853Y0240818D01*
X0125817Y0240818D01*
X0126043Y0240272D01*
X0127161Y0239154D01*
X0128622Y0238549D01*
X0134978Y0238549D01*
X0136439Y0239154D01*
X0137557Y0240272D01*
X0138162Y0241733D01*
X0138162Y0243314D01*
X0137557Y0244775D01*
X0136439Y0245893D01*
X0134978Y0246498D01*
X0128622Y0246498D01*
X0127161Y0245893D01*
X0126048Y0244780D01*
X0110495Y0244780D01*
X0106214Y0249061D01*
X0106439Y0249154D01*
X0107557Y0250272D01*
X0108162Y0251733D01*
X0108162Y0253314D01*
X0107557Y0254775D01*
X0106439Y0255893D01*
X0104978Y0256498D01*
X0098622Y0256498D01*
X0097161Y0255893D01*
X0096043Y0254775D01*
X0095438Y0253314D01*
X0095438Y0251733D01*
X0096043Y0250272D01*
X0096810Y0249505D01*
X0036702Y0249505D01*
X0036282Y0250519D01*
X0034795Y0252006D01*
X0033546Y0252524D01*
X0034795Y0253041D01*
X0036282Y0254529D01*
X0037087Y0256472D01*
X0037087Y0258575D01*
X0036282Y0260519D01*
X0034795Y0262006D01*
X0033546Y0262524D01*
X0034795Y0263041D01*
X0036282Y0264529D01*
X0037087Y0266472D01*
X0037087Y0267590D01*
X0063056Y0267590D01*
X0062457Y0266143D01*
X0062457Y0258904D01*
X0063118Y0257307D01*
X0064340Y0256086D01*
X0065936Y0255424D01*
X0067664Y0255424D01*
X0069260Y0256086D01*
X0070482Y0257307D01*
X0071143Y0258904D01*
X0071143Y0264355D01*
X0072457Y0263042D01*
X0072457Y0258904D01*
X0073118Y0257307D01*
X0074340Y0256086D01*
X0075936Y0255424D01*
X0077664Y0255424D01*
X0079260Y0256086D01*
X0080482Y0257307D01*
X0081143Y0258904D01*
X0081143Y0266143D01*
X0080482Y0267740D01*
X0079260Y0268962D01*
X0077664Y0269623D01*
X0075936Y0269623D01*
X0074340Y0268962D01*
X0073240Y0267862D01*
X0070710Y0270391D01*
X0069550Y0271552D01*
X0035249Y0271552D01*
X0034795Y0272006D01*
X0033546Y0272524D01*
X0034795Y0273041D01*
X0036282Y0274529D01*
X0037087Y0276472D01*
X0037087Y0278575D01*
X0036282Y0280519D01*
X0034795Y0282006D01*
X0032852Y0282811D01*
X0030748Y0282811D01*
X0028805Y0282006D01*
X0027318Y0280519D01*
X0026513Y0278575D01*
X0026513Y0276472D01*
X0027318Y0274529D01*
X0028805Y0273041D01*
X0030054Y0272524D01*
X0028805Y0272006D01*
X0027318Y0270519D01*
X0026513Y0268575D01*
X0026513Y0266472D01*
X0027318Y0264529D01*
X0028805Y0263041D01*
X0030054Y0262524D01*
X0028805Y0262006D01*
X0027318Y0260519D01*
X0026513Y0258575D01*
X0026513Y0256472D01*
X0027318Y0254529D01*
X0028805Y0253041D01*
X0030054Y0252524D01*
X0028805Y0252006D01*
X0027318Y0250519D01*
X0026513Y0248575D01*
X0026513Y0246472D01*
X0027318Y0244529D01*
X0028805Y0243041D01*
X0030054Y0242524D01*
X0028805Y0242006D01*
X0027318Y0240519D01*
X0026513Y0238575D01*
X0026513Y0236472D01*
X0027318Y0234529D01*
X0027920Y0233926D01*
X0024581Y0230587D01*
X0024581Y0281372D01*
X0027952Y0284743D01*
X0072353Y0284743D01*
X0073375Y0285166D01*
X0082952Y0294743D01*
X0210648Y0294743D01*
X0219442Y0285948D01*
X0220225Y0285166D01*
X0221247Y0284743D01*
X0229019Y0284743D01*
X0229019Y0075305D01*
X0024581Y0075305D01*
X0024581Y0076297D02*
X0229019Y0076297D01*
X0229019Y0077895D02*
X0024581Y0077895D01*
X0024581Y0079494D02*
X0229019Y0079494D01*
X0229019Y0081092D02*
X0024581Y0081092D01*
X0024581Y0082691D02*
X0229019Y0082691D01*
X0229019Y0084289D02*
X0024581Y0084289D01*
X0024581Y0085888D02*
X0229019Y0085888D01*
X0229019Y0087486D02*
X0024581Y0087486D01*
X0024581Y0089085D02*
X0229019Y0089085D01*
X0229019Y0090683D02*
X0024581Y0090683D01*
X0024581Y0092282D02*
X0229019Y0092282D01*
X0229019Y0093880D02*
X0024581Y0093880D01*
X0024581Y0095479D02*
X0229019Y0095479D01*
X0229019Y0097077D02*
X0024581Y0097077D01*
X0024581Y0098676D02*
X0028170Y0098676D01*
X0027009Y0100274D02*
X0024581Y0100274D01*
X0024581Y0101873D02*
X0026513Y0101873D01*
X0026513Y0103472D02*
X0024581Y0103472D01*
X0024581Y0105070D02*
X0027132Y0105070D01*
X0028467Y0106669D02*
X0024581Y0106669D01*
X0024581Y0108267D02*
X0028579Y0108267D01*
X0027178Y0109866D02*
X0024581Y0109866D01*
X0024581Y0111464D02*
X0026516Y0111464D01*
X0026513Y0113063D02*
X0024581Y0113063D01*
X0024581Y0114661D02*
X0026962Y0114661D01*
X0028058Y0116260D02*
X0024581Y0116260D01*
X0024581Y0117858D02*
X0029247Y0117858D01*
X0027389Y0119457D02*
X0024581Y0119457D01*
X0024581Y0121055D02*
X0026685Y0121055D01*
X0026513Y0122654D02*
X0024581Y0122654D01*
X0024581Y0124252D02*
X0026793Y0124252D01*
X0027650Y0125851D02*
X0024581Y0125851D01*
X0024581Y0127449D02*
X0029875Y0127449D01*
X0027798Y0129048D02*
X0024581Y0129048D01*
X0024581Y0130646D02*
X0026851Y0130646D01*
X0026513Y0132245D02*
X0024581Y0132245D01*
X0024581Y0133843D02*
X0026669Y0133843D01*
X0027385Y0135442D02*
X0024581Y0135442D01*
X0024581Y0137040D02*
X0029021Y0137040D01*
X0028207Y0138639D02*
X0024581Y0138639D01*
X0024581Y0140237D02*
X0027024Y0140237D01*
X0026513Y0141836D02*
X0024581Y0141836D01*
X0024581Y0143434D02*
X0026513Y0143434D01*
X0027116Y0145033D02*
X0024581Y0145033D01*
X0024581Y0146631D02*
X0028430Y0146631D01*
X0028616Y0148230D02*
X0024581Y0148230D01*
X0024581Y0149828D02*
X0027193Y0149828D01*
X0026531Y0151427D02*
X0024581Y0151427D01*
X0024581Y0153025D02*
X0026513Y0153025D01*
X0026947Y0154624D02*
X0024581Y0154624D01*
X0024581Y0156222D02*
X0028021Y0156222D01*
X0029337Y0157821D02*
X0024581Y0157821D01*
X0024581Y0159419D02*
X0027427Y0159419D01*
X0026701Y0161018D02*
X0024581Y0161018D01*
X0024581Y0162616D02*
X0026513Y0162616D01*
X0026778Y0164215D02*
X0024581Y0164215D01*
X0024581Y0165813D02*
X0026378Y0165813D01*
X0024779Y0167412D02*
X0024581Y0167412D01*
X0033815Y0167412D02*
X0041315Y0167412D01*
X0042913Y0165813D02*
X0035988Y0165813D01*
X0036822Y0164215D02*
X0044512Y0164215D01*
X0046110Y0162616D02*
X0037087Y0162616D01*
X0036899Y0161018D02*
X0047709Y0161018D01*
X0049307Y0159419D02*
X0036173Y0159419D01*
X0034263Y0157821D02*
X0050906Y0157821D01*
X0052504Y0156222D02*
X0035579Y0156222D01*
X0036653Y0154624D02*
X0054103Y0154624D01*
X0055701Y0153025D02*
X0037087Y0153025D01*
X0037069Y0151427D02*
X0057300Y0151427D01*
X0058898Y0149828D02*
X0036407Y0149828D01*
X0034984Y0148230D02*
X0060497Y0148230D01*
X0062095Y0146631D02*
X0035170Y0146631D01*
X0036484Y0145033D02*
X0063694Y0145033D01*
X0065292Y0143434D02*
X0037087Y0143434D01*
X0037087Y0141836D02*
X0066891Y0141836D01*
X0068489Y0140237D02*
X0036576Y0140237D01*
X0035393Y0138639D02*
X0070088Y0138639D01*
X0071686Y0137040D02*
X0034579Y0137040D01*
X0036215Y0135442D02*
X0073285Y0135442D01*
X0074883Y0133843D02*
X0036931Y0133843D01*
X0037087Y0132245D02*
X0076482Y0132245D01*
X0078080Y0130646D02*
X0036749Y0130646D01*
X0035802Y0129048D02*
X0079679Y0129048D01*
X0081277Y0127449D02*
X0033725Y0127449D01*
X0035950Y0125851D02*
X0082876Y0125851D01*
X0084474Y0124252D02*
X0078559Y0124252D01*
X0079260Y0123962D02*
X0077664Y0124623D01*
X0075936Y0124623D01*
X0074340Y0123962D01*
X0073118Y0122740D01*
X0072457Y0121143D01*
X0072457Y0113904D01*
X0073118Y0112307D01*
X0074340Y0111086D01*
X0075936Y0110424D01*
X0077664Y0110424D01*
X0079260Y0111086D01*
X0080482Y0112307D01*
X0081143Y0113904D01*
X0081143Y0121143D01*
X0080482Y0122740D01*
X0079260Y0123962D01*
X0080518Y0122654D02*
X0086073Y0122654D01*
X0087671Y0121055D02*
X0081143Y0121055D01*
X0081143Y0119457D02*
X0089270Y0119457D01*
X0090869Y0117858D02*
X0081143Y0117858D01*
X0081143Y0116260D02*
X0092467Y0116260D01*
X0094066Y0114661D02*
X0081143Y0114661D01*
X0080795Y0113063D02*
X0095664Y0113063D01*
X0097263Y0111464D02*
X0079639Y0111464D01*
X0073961Y0111464D02*
X0069639Y0111464D01*
X0069260Y0111086D02*
X0070482Y0112307D01*
X0071143Y0113904D01*
X0071143Y0121143D01*
X0070482Y0122740D01*
X0069260Y0123962D01*
X0067664Y0124623D01*
X0065936Y0124623D01*
X0064340Y0123962D01*
X0063118Y0122740D01*
X0062457Y0121143D01*
X0062457Y0113904D01*
X0063118Y0112307D01*
X0064340Y0111086D01*
X0065936Y0110424D01*
X0067664Y0110424D01*
X0069260Y0111086D01*
X0070795Y0113063D02*
X0072805Y0113063D01*
X0072457Y0114661D02*
X0071143Y0114661D01*
X0071143Y0116260D02*
X0072457Y0116260D01*
X0072457Y0117858D02*
X0071143Y0117858D01*
X0071143Y0119457D02*
X0072457Y0119457D01*
X0072457Y0121055D02*
X0071143Y0121055D01*
X0070518Y0122654D02*
X0073082Y0122654D01*
X0075041Y0124252D02*
X0068559Y0124252D01*
X0065041Y0124252D02*
X0036807Y0124252D01*
X0037087Y0122654D02*
X0063082Y0122654D01*
X0062457Y0121055D02*
X0036915Y0121055D01*
X0036211Y0119457D02*
X0062457Y0119457D01*
X0062457Y0117858D02*
X0034353Y0117858D01*
X0035542Y0116260D02*
X0062457Y0116260D01*
X0062457Y0114661D02*
X0036638Y0114661D01*
X0037087Y0113063D02*
X0062805Y0113063D01*
X0063961Y0111464D02*
X0037084Y0111464D01*
X0036422Y0109866D02*
X0098861Y0109866D01*
X0115867Y0148230D02*
X0117736Y0148230D01*
X0117457Y0149828D02*
X0116143Y0149828D01*
X0116143Y0151427D02*
X0117457Y0151427D01*
X0117457Y0153025D02*
X0116143Y0153025D01*
X0116143Y0152708D02*
X0116143Y0155621D01*
X0116036Y0156297D01*
X0115825Y0156947D01*
X0115515Y0157556D01*
X0115113Y0158109D01*
X0114629Y0158592D01*
X0114076Y0158994D01*
X0113467Y0159305D01*
X0112817Y0159516D01*
X0112142Y0159623D01*
X0111984Y0159623D01*
X0111984Y0152708D01*
X0116143Y0152708D01*
X0116143Y0154624D02*
X0117457Y0154624D01*
X0117489Y0156222D02*
X0116048Y0156222D01*
X0115322Y0157821D02*
X0118199Y0157821D01*
X0120445Y0159419D02*
X0113114Y0159419D01*
X0111984Y0159419D02*
X0111616Y0159419D01*
X0110486Y0159419D02*
X0096643Y0159419D01*
X0098241Y0157821D02*
X0108278Y0157821D01*
X0107552Y0156222D02*
X0099840Y0156222D01*
X0101438Y0154624D02*
X0107457Y0154624D01*
X0107457Y0153025D02*
X0103037Y0153025D01*
X0104635Y0151427D02*
X0107457Y0151427D01*
X0107457Y0149828D02*
X0106234Y0149828D01*
X0111616Y0153025D02*
X0111984Y0153025D01*
X0111984Y0154624D02*
X0111616Y0154624D01*
X0111616Y0156222D02*
X0111984Y0156222D01*
X0111984Y0157821D02*
X0111616Y0157821D01*
X0123155Y0159419D02*
X0146327Y0159419D01*
X0145250Y0157821D02*
X0125401Y0157821D01*
X0126111Y0156222D02*
X0142738Y0156222D01*
X0141730Y0154624D02*
X0126143Y0154624D01*
X0126143Y0153025D02*
X0141313Y0153025D01*
X0141315Y0151427D02*
X0126143Y0151427D01*
X0126143Y0149828D02*
X0141977Y0149828D01*
X0143333Y0148230D02*
X0125864Y0148230D01*
X0147926Y0161018D02*
X0095044Y0161018D01*
X0093446Y0162616D02*
X0149524Y0162616D01*
X0151123Y0164215D02*
X0091847Y0164215D01*
X0090249Y0165813D02*
X0152721Y0165813D01*
X0154320Y0167412D02*
X0088650Y0167412D01*
X0087052Y0169010D02*
X0155918Y0169010D01*
X0157517Y0170609D02*
X0085453Y0170609D01*
X0083855Y0172208D02*
X0159115Y0172208D01*
X0160714Y0173806D02*
X0082256Y0173806D01*
X0080658Y0175405D02*
X0162312Y0175405D01*
X0163911Y0177003D02*
X0079059Y0177003D01*
X0077461Y0178602D02*
X0098495Y0178602D01*
X0098622Y0178549D02*
X0104978Y0178549D01*
X0106439Y0179154D01*
X0107557Y0180272D01*
X0108162Y0181733D01*
X0108162Y0183314D01*
X0107557Y0184775D01*
X0106439Y0185893D01*
X0104978Y0186498D01*
X0098622Y0186498D01*
X0097161Y0185893D01*
X0096043Y0184775D01*
X0095438Y0183314D01*
X0095438Y0181733D01*
X0096043Y0180272D01*
X0097161Y0179154D01*
X0098622Y0178549D01*
X0096115Y0180200D02*
X0075862Y0180200D01*
X0074264Y0181799D02*
X0095438Y0181799D01*
X0095472Y0183397D02*
X0072665Y0183397D01*
X0071067Y0184996D02*
X0096263Y0184996D01*
X0097161Y0189154D02*
X0098622Y0188549D01*
X0104978Y0188549D01*
X0106439Y0189154D01*
X0107557Y0190272D01*
X0108162Y0191733D01*
X0108162Y0193314D01*
X0107557Y0194775D01*
X0106439Y0195893D01*
X0104978Y0196498D01*
X0098622Y0196498D01*
X0097161Y0195893D01*
X0096043Y0194775D01*
X0095438Y0193314D01*
X0095438Y0191733D01*
X0096043Y0190272D01*
X0097161Y0189154D01*
X0096524Y0189791D02*
X0066271Y0189791D01*
X0064673Y0191390D02*
X0095580Y0191390D01*
X0095438Y0192988D02*
X0063074Y0192988D01*
X0067870Y0188193D02*
X0175100Y0188193D01*
X0176699Y0189791D02*
X0137076Y0189791D01*
X0138020Y0191390D02*
X0149036Y0191390D01*
X0149340Y0191086D02*
X0150936Y0190424D01*
X0152664Y0190424D01*
X0154260Y0191086D01*
X0155482Y0192307D01*
X0156143Y0193904D01*
X0156143Y0200615D01*
X0157457Y0199301D01*
X0157457Y0193904D01*
X0158118Y0192307D01*
X0159340Y0191086D01*
X0160936Y0190424D01*
X0162664Y0190424D01*
X0164260Y0191086D01*
X0165482Y0192307D01*
X0166143Y0193904D01*
X0166143Y0201143D01*
X0165482Y0202740D01*
X0164260Y0203962D01*
X0162664Y0204623D01*
X0160936Y0204623D01*
X0159340Y0203962D01*
X0158870Y0203492D01*
X0156164Y0206198D01*
X0149011Y0206198D01*
X0147850Y0205037D01*
X0147436Y0204623D01*
X0137620Y0204623D01*
X0137557Y0204775D01*
X0136439Y0205893D01*
X0134978Y0206498D01*
X0128622Y0206498D01*
X0127161Y0205893D01*
X0126043Y0204775D01*
X0125438Y0203314D01*
X0125438Y0201733D01*
X0126043Y0200272D01*
X0127161Y0199154D01*
X0128622Y0198549D01*
X0134978Y0198549D01*
X0136439Y0199154D01*
X0137557Y0200272D01*
X0137718Y0200661D01*
X0147457Y0200661D01*
X0147457Y0193904D01*
X0148118Y0192307D01*
X0149340Y0191086D01*
X0147836Y0192988D02*
X0138162Y0192988D01*
X0137635Y0194587D02*
X0147457Y0194587D01*
X0147457Y0196185D02*
X0135734Y0196185D01*
X0136667Y0199382D02*
X0147457Y0199382D01*
X0147457Y0197784D02*
X0117334Y0197784D01*
X0115735Y0199382D02*
X0126933Y0199382D01*
X0125749Y0200981D02*
X0114137Y0200981D01*
X0112538Y0202579D02*
X0125438Y0202579D01*
X0125795Y0204178D02*
X0110940Y0204178D01*
X0109341Y0205776D02*
X0127044Y0205776D01*
X0128253Y0208702D02*
X0129021Y0208549D01*
X0131800Y0208549D01*
X0134579Y0208549D01*
X0135347Y0208702D01*
X0136070Y0209001D01*
X0136721Y0209436D01*
X0137275Y0209990D01*
X0137710Y0210641D01*
X0138009Y0211364D01*
X0138162Y0212132D01*
X0138162Y0212524D01*
X0138162Y0212915D01*
X0138009Y0213683D01*
X0137710Y0214406D01*
X0137275Y0215057D01*
X0136721Y0215611D01*
X0136070Y0216046D01*
X0135347Y0216346D01*
X0134579Y0216498D01*
X0131800Y0216498D01*
X0129021Y0216498D01*
X0128253Y0216346D01*
X0127530Y0216046D01*
X0126879Y0215611D01*
X0126325Y0215057D01*
X0125890Y0214406D01*
X0125591Y0213683D01*
X0125438Y0212915D01*
X0125438Y0212524D01*
X0131800Y0212524D01*
X0131800Y0216498D01*
X0131800Y0212524D01*
X0131800Y0212524D01*
X0138162Y0212524D01*
X0131800Y0212524D01*
X0131800Y0212524D01*
X0131800Y0212524D01*
X0125438Y0212524D01*
X0125438Y0212132D01*
X0125591Y0211364D01*
X0125890Y0210641D01*
X0126325Y0209990D01*
X0126879Y0209436D01*
X0127530Y0209001D01*
X0128253Y0208702D01*
X0127597Y0208973D02*
X0106144Y0208973D01*
X0107664Y0210572D02*
X0125936Y0210572D01*
X0125438Y0212170D02*
X0108162Y0212170D01*
X0107974Y0213769D02*
X0125626Y0213769D01*
X0126635Y0215367D02*
X0106965Y0215367D01*
X0105347Y0218702D02*
X0106070Y0219001D01*
X0106721Y0219436D01*
X0107275Y0219990D01*
X0107710Y0220641D01*
X0108009Y0221364D01*
X0108162Y0222132D01*
X0108162Y0222524D01*
X0108162Y0222915D01*
X0108009Y0223683D01*
X0107710Y0224406D01*
X0107275Y0225057D01*
X0106721Y0225611D01*
X0106070Y0226046D01*
X0105347Y0226346D01*
X0104579Y0226498D01*
X0101800Y0226498D01*
X0099021Y0226498D01*
X0098253Y0226346D01*
X0097530Y0226046D01*
X0096879Y0225611D01*
X0096325Y0225057D01*
X0095890Y0224406D01*
X0095591Y0223683D01*
X0095438Y0222915D01*
X0095438Y0222524D01*
X0101800Y0222524D01*
X0101800Y0226498D01*
X0101800Y0222524D01*
X0101800Y0222524D01*
X0108162Y0222524D01*
X0101800Y0222524D01*
X0101800Y0222524D01*
X0101800Y0222524D01*
X0095438Y0222524D01*
X0095438Y0222132D01*
X0095591Y0221364D01*
X0095890Y0220641D01*
X0096325Y0219990D01*
X0096879Y0219436D01*
X0097530Y0219001D01*
X0098253Y0218702D01*
X0099021Y0218549D01*
X0101800Y0218549D01*
X0104579Y0218549D01*
X0105347Y0218702D01*
X0104657Y0218564D02*
X0128943Y0218564D01*
X0129021Y0218549D02*
X0131800Y0218549D01*
X0134579Y0218549D01*
X0135347Y0218702D01*
X0136070Y0219001D01*
X0136721Y0219436D01*
X0137275Y0219990D01*
X0137710Y0220641D01*
X0138009Y0221364D01*
X0138162Y0222132D01*
X0138162Y0222524D01*
X0138162Y0222915D01*
X0138009Y0223683D01*
X0137710Y0224406D01*
X0137275Y0225057D01*
X0136721Y0225611D01*
X0136070Y0226046D01*
X0135347Y0226346D01*
X0134579Y0226498D01*
X0131800Y0226498D01*
X0129021Y0226498D01*
X0128253Y0226346D01*
X0127530Y0226046D01*
X0126879Y0225611D01*
X0126325Y0225057D01*
X0125890Y0224406D01*
X0125591Y0223683D01*
X0125438Y0222915D01*
X0125438Y0222524D01*
X0131800Y0222524D01*
X0131800Y0226498D01*
X0131800Y0222524D01*
X0131800Y0222524D01*
X0138162Y0222524D01*
X0131800Y0222524D01*
X0131800Y0222524D01*
X0131800Y0222524D01*
X0125438Y0222524D01*
X0125438Y0222132D01*
X0125591Y0221364D01*
X0125890Y0220641D01*
X0126325Y0219990D01*
X0126879Y0219436D01*
X0127530Y0219001D01*
X0128253Y0218702D01*
X0129021Y0218549D01*
X0131800Y0218549D02*
X0131800Y0222523D01*
X0131800Y0218549D01*
X0131800Y0218564D02*
X0131800Y0218564D01*
X0131800Y0220163D02*
X0131800Y0220163D01*
X0131800Y0221761D02*
X0131800Y0221761D01*
X0131800Y0222523D02*
X0131800Y0222523D01*
X0131800Y0223360D02*
X0131800Y0223360D01*
X0131800Y0224958D02*
X0131800Y0224958D01*
X0128622Y0228549D02*
X0134978Y0228549D01*
X0136439Y0229154D01*
X0137557Y0230272D01*
X0138162Y0231733D01*
X0138162Y0233314D01*
X0137557Y0234775D01*
X0136439Y0235893D01*
X0134978Y0236498D01*
X0128622Y0236498D01*
X0127161Y0235893D01*
X0126043Y0234775D01*
X0125438Y0233314D01*
X0125438Y0231733D01*
X0126043Y0230272D01*
X0127161Y0229154D01*
X0128622Y0228549D01*
X0126561Y0229754D02*
X0107039Y0229754D01*
X0107557Y0230272D02*
X0108162Y0231733D01*
X0108162Y0233314D01*
X0107557Y0234775D01*
X0106439Y0235893D01*
X0104978Y0236498D01*
X0098622Y0236498D01*
X0097161Y0235893D01*
X0096043Y0234775D01*
X0095438Y0233314D01*
X0095438Y0231733D01*
X0096043Y0230272D01*
X0097161Y0229154D01*
X0098622Y0228549D01*
X0104978Y0228549D01*
X0106439Y0229154D01*
X0107557Y0230272D01*
X0108005Y0231352D02*
X0125595Y0231352D01*
X0125438Y0232951D02*
X0108162Y0232951D01*
X0107651Y0234549D02*
X0125949Y0234549D01*
X0127776Y0236148D02*
X0105824Y0236148D01*
X0106630Y0239345D02*
X0126970Y0239345D01*
X0127007Y0245739D02*
X0109536Y0245739D01*
X0107937Y0247338D02*
X0182496Y0247338D01*
X0182496Y0248936D02*
X0135913Y0248936D01*
X0137666Y0250535D02*
X0182496Y0250535D01*
X0182496Y0252133D02*
X0138162Y0252133D01*
X0137989Y0253732D02*
X0182496Y0253732D01*
X0182496Y0255330D02*
X0137605Y0255330D01*
X0139204Y0256929D02*
X0182496Y0256929D01*
X0182496Y0258527D02*
X0140802Y0258527D01*
X0142401Y0260126D02*
X0182496Y0260126D01*
X0182496Y0261724D02*
X0143999Y0261724D01*
X0145598Y0263323D02*
X0182496Y0263323D01*
X0182496Y0264921D02*
X0147196Y0264921D01*
X0144790Y0268118D02*
X0080104Y0268118D01*
X0080987Y0266520D02*
X0143191Y0266520D01*
X0141593Y0264921D02*
X0081143Y0264921D01*
X0081143Y0263323D02*
X0139994Y0263323D01*
X0138396Y0261724D02*
X0081143Y0261724D01*
X0081143Y0260126D02*
X0136797Y0260126D01*
X0135199Y0258527D02*
X0080987Y0258527D01*
X0080103Y0256929D02*
X0133600Y0256929D01*
X0126598Y0255330D02*
X0107002Y0255330D01*
X0107989Y0253732D02*
X0125611Y0253732D01*
X0125438Y0252133D02*
X0108162Y0252133D01*
X0107666Y0250535D02*
X0125934Y0250535D01*
X0127687Y0248936D02*
X0106339Y0248936D01*
X0107835Y0240943D02*
X0108728Y0240943D01*
X0096970Y0239345D02*
X0043667Y0239345D01*
X0042069Y0237746D02*
X0182496Y0237746D01*
X0182496Y0236148D02*
X0135824Y0236148D01*
X0137651Y0234549D02*
X0182496Y0234549D01*
X0182496Y0232951D02*
X0138162Y0232951D01*
X0138005Y0231352D02*
X0182496Y0231352D01*
X0182496Y0229754D02*
X0137039Y0229754D01*
X0137341Y0224958D02*
X0182496Y0224958D01*
X0182496Y0223360D02*
X0138074Y0223360D01*
X0138088Y0221761D02*
X0182496Y0221761D01*
X0182496Y0220163D02*
X0137390Y0220163D01*
X0134657Y0218564D02*
X0182496Y0218564D01*
X0182496Y0216966D02*
X0081143Y0216966D01*
X0081143Y0218564D02*
X0098943Y0218564D01*
X0101800Y0218564D02*
X0101800Y0218564D01*
X0101800Y0218549D02*
X0101800Y0222523D01*
X0101800Y0222523D01*
X0101800Y0218549D01*
X0101800Y0220163D02*
X0101800Y0220163D01*
X0101800Y0221761D02*
X0101800Y0221761D01*
X0101800Y0223360D02*
X0101800Y0223360D01*
X0101800Y0224958D02*
X0101800Y0224958D01*
X0107341Y0224958D02*
X0126259Y0224958D01*
X0125526Y0223360D02*
X0108074Y0223360D01*
X0108088Y0221761D02*
X0125512Y0221761D01*
X0126210Y0220163D02*
X0107390Y0220163D01*
X0101800Y0215367D02*
X0101800Y0215367D01*
X0101800Y0213769D02*
X0101800Y0213769D01*
X0096635Y0215367D02*
X0081143Y0215367D01*
X0081087Y0213769D02*
X0095626Y0213769D01*
X0095438Y0212170D02*
X0080345Y0212170D01*
X0073255Y0212170D02*
X0070345Y0212170D01*
X0071087Y0213769D02*
X0072513Y0213769D01*
X0072457Y0215367D02*
X0071143Y0215367D01*
X0071143Y0216966D02*
X0072457Y0216966D01*
X0072457Y0218564D02*
X0071143Y0218564D01*
X0071143Y0220163D02*
X0072457Y0220163D01*
X0072713Y0221761D02*
X0070887Y0221761D01*
X0069862Y0223360D02*
X0073738Y0223360D01*
X0079862Y0223360D02*
X0095526Y0223360D01*
X0095512Y0221761D02*
X0080887Y0221761D01*
X0081143Y0220163D02*
X0096210Y0220163D01*
X0096259Y0224958D02*
X0037403Y0224958D01*
X0037087Y0226557D02*
X0182496Y0226557D01*
X0182496Y0228155D02*
X0037087Y0228155D01*
X0036599Y0229754D02*
X0096561Y0229754D01*
X0095595Y0231352D02*
X0035675Y0231352D01*
X0037273Y0232951D02*
X0095438Y0232951D01*
X0095949Y0234549D02*
X0038872Y0234549D01*
X0040470Y0236148D02*
X0097776Y0236148D01*
X0095934Y0250535D02*
X0036267Y0250535D01*
X0034488Y0252133D02*
X0095438Y0252133D01*
X0095611Y0253732D02*
X0035485Y0253732D01*
X0036614Y0255330D02*
X0096598Y0255330D01*
X0073497Y0256929D02*
X0070103Y0256929D01*
X0070987Y0258527D02*
X0072613Y0258527D01*
X0072457Y0260126D02*
X0071143Y0260126D01*
X0071143Y0261724D02*
X0072457Y0261724D01*
X0072176Y0263323D02*
X0071143Y0263323D01*
X0072984Y0268118D02*
X0073496Y0268118D01*
X0071385Y0269717D02*
X0185251Y0269717D01*
X0186848Y0271315D02*
X0069786Y0271315D01*
X0062613Y0266520D02*
X0037087Y0266520D01*
X0036445Y0264921D02*
X0062457Y0264921D01*
X0062457Y0263323D02*
X0035077Y0263323D01*
X0035077Y0261724D02*
X0062457Y0261724D01*
X0062457Y0260126D02*
X0036445Y0260126D01*
X0037087Y0258527D02*
X0062613Y0258527D01*
X0063497Y0256929D02*
X0037087Y0256929D01*
X0029112Y0252133D02*
X0024581Y0252133D01*
X0024581Y0250535D02*
X0027333Y0250535D01*
X0026662Y0248936D02*
X0024581Y0248936D01*
X0024581Y0247338D02*
X0026513Y0247338D01*
X0026816Y0245739D02*
X0024581Y0245739D01*
X0024581Y0244141D02*
X0027706Y0244141D01*
X0030010Y0242542D02*
X0024581Y0242542D01*
X0024581Y0240943D02*
X0027742Y0240943D01*
X0026831Y0239345D02*
X0024581Y0239345D01*
X0024581Y0237746D02*
X0026513Y0237746D01*
X0026647Y0236148D02*
X0024581Y0236148D01*
X0024581Y0234549D02*
X0027309Y0234549D01*
X0026945Y0232951D02*
X0024581Y0232951D01*
X0024581Y0231352D02*
X0025347Y0231352D01*
X0036430Y0220163D02*
X0036595Y0220163D01*
X0037087Y0218564D02*
X0038194Y0218564D01*
X0037087Y0216966D02*
X0039792Y0216966D01*
X0041391Y0215367D02*
X0036630Y0215367D01*
X0035523Y0213769D02*
X0042989Y0213769D01*
X0044588Y0212170D02*
X0034399Y0212170D01*
X0036229Y0210572D02*
X0046186Y0210572D01*
X0047785Y0208973D02*
X0036923Y0208973D01*
X0037087Y0207375D02*
X0049383Y0207375D01*
X0050191Y0212170D02*
X0063255Y0212170D01*
X0062513Y0213769D02*
X0048593Y0213769D01*
X0046994Y0215367D02*
X0062457Y0215367D01*
X0062457Y0216966D02*
X0045396Y0216966D01*
X0043797Y0218564D02*
X0062457Y0218564D01*
X0062457Y0220163D02*
X0042199Y0220163D01*
X0040600Y0221761D02*
X0062713Y0221761D01*
X0063738Y0223360D02*
X0039002Y0223360D01*
X0036799Y0205776D02*
X0097044Y0205776D01*
X0095795Y0204178D02*
X0035932Y0204178D01*
X0033680Y0202579D02*
X0095438Y0202579D01*
X0095749Y0200981D02*
X0028191Y0200981D01*
X0028191Y0199382D02*
X0096933Y0199382D01*
X0097866Y0196185D02*
X0035616Y0196185D01*
X0036668Y0194587D02*
X0095965Y0194587D01*
X0105734Y0196185D02*
X0113329Y0196185D01*
X0114927Y0194587D02*
X0107635Y0194587D01*
X0108162Y0192988D02*
X0116526Y0192988D01*
X0118124Y0191390D02*
X0108020Y0191390D01*
X0107076Y0189791D02*
X0126524Y0189791D01*
X0128622Y0186498D02*
X0127161Y0185893D01*
X0126043Y0184775D01*
X0125438Y0183314D01*
X0125438Y0181733D01*
X0126043Y0180272D01*
X0127161Y0179154D01*
X0128622Y0178549D01*
X0134978Y0178549D01*
X0136439Y0179154D01*
X0137557Y0180272D01*
X0138162Y0181733D01*
X0138162Y0183314D01*
X0137557Y0184775D01*
X0136439Y0185893D01*
X0134978Y0186498D01*
X0128622Y0186498D01*
X0126263Y0184996D02*
X0107337Y0184996D01*
X0108128Y0183397D02*
X0125472Y0183397D01*
X0125438Y0181799D02*
X0108162Y0181799D01*
X0107485Y0180200D02*
X0126115Y0180200D01*
X0128495Y0178602D02*
X0105105Y0178602D01*
X0111730Y0197784D02*
X0032918Y0197784D01*
X0030682Y0197784D02*
X0028191Y0197784D01*
X0029736Y0202579D02*
X0029920Y0202579D01*
X0036654Y0190424D02*
X0055341Y0190424D01*
X0055134Y0189924D01*
X0055134Y0188588D01*
X0055645Y0187353D01*
X0056590Y0186408D01*
X0057825Y0185897D01*
X0059050Y0185897D01*
X0069110Y0175837D01*
X0069110Y0173970D01*
X0069076Y0173994D01*
X0068467Y0174305D01*
X0067817Y0174516D01*
X0067142Y0174623D01*
X0066984Y0174623D01*
X0066984Y0167708D01*
X0066616Y0167708D01*
X0066616Y0174623D01*
X0066458Y0174623D01*
X0065783Y0174516D01*
X0065133Y0174305D01*
X0064524Y0173994D01*
X0063971Y0173592D01*
X0063487Y0173109D01*
X0063085Y0172556D01*
X0062775Y0171947D01*
X0062564Y0171297D01*
X0062457Y0170621D01*
X0062457Y0167708D01*
X0066616Y0167708D01*
X0066616Y0167339D01*
X0062457Y0167339D01*
X0062457Y0164426D01*
X0062564Y0163751D01*
X0062775Y0163100D01*
X0063085Y0162491D01*
X0063487Y0161938D01*
X0063971Y0161455D01*
X0064524Y0161053D01*
X0065133Y0160743D01*
X0065783Y0160531D01*
X0065802Y0160528D01*
X0056951Y0160528D01*
X0036771Y0180708D01*
X0037087Y0181472D01*
X0037087Y0183575D01*
X0036282Y0185519D01*
X0034795Y0187006D01*
X0033546Y0187524D01*
X0034795Y0188041D01*
X0036282Y0189529D01*
X0036654Y0190424D01*
X0036391Y0189791D02*
X0055134Y0189791D01*
X0055298Y0188193D02*
X0034947Y0188193D01*
X0035207Y0186594D02*
X0056404Y0186594D01*
X0059952Y0184996D02*
X0036499Y0184996D01*
X0037087Y0183397D02*
X0061550Y0183397D01*
X0063149Y0181799D02*
X0037087Y0181799D01*
X0037280Y0180200D02*
X0064747Y0180200D01*
X0066346Y0178602D02*
X0038878Y0178602D01*
X0040477Y0177003D02*
X0067944Y0177003D01*
X0069110Y0175405D02*
X0042075Y0175405D01*
X0043674Y0173806D02*
X0064265Y0173806D01*
X0062908Y0172208D02*
X0045272Y0172208D01*
X0046871Y0170609D02*
X0062457Y0170609D01*
X0062457Y0169010D02*
X0048469Y0169010D01*
X0050068Y0167412D02*
X0066616Y0167412D01*
X0066616Y0169010D02*
X0066984Y0169010D01*
X0066984Y0170609D02*
X0066616Y0170609D01*
X0066616Y0172208D02*
X0066984Y0172208D01*
X0066984Y0173806D02*
X0066616Y0173806D01*
X0062457Y0165813D02*
X0051666Y0165813D01*
X0053265Y0164215D02*
X0062490Y0164215D01*
X0063022Y0162616D02*
X0054863Y0162616D01*
X0056462Y0161018D02*
X0064592Y0161018D01*
X0069468Y0186594D02*
X0173502Y0186594D01*
X0171903Y0184996D02*
X0137337Y0184996D01*
X0138128Y0183397D02*
X0170305Y0183397D01*
X0168706Y0181799D02*
X0138162Y0181799D01*
X0137485Y0180200D02*
X0167108Y0180200D01*
X0165509Y0178602D02*
X0135105Y0178602D01*
X0127866Y0196185D02*
X0118932Y0196185D01*
X0110132Y0199382D02*
X0106667Y0199382D01*
X0107851Y0200981D02*
X0108533Y0200981D01*
X0107743Y0207375D02*
X0184029Y0207375D01*
X0182496Y0208973D02*
X0136003Y0208973D01*
X0137664Y0210572D02*
X0182496Y0210572D01*
X0182496Y0212170D02*
X0138162Y0212170D01*
X0137974Y0213769D02*
X0182496Y0213769D01*
X0182496Y0215367D02*
X0136965Y0215367D01*
X0131800Y0215367D02*
X0131800Y0215367D01*
X0131800Y0213769D02*
X0131800Y0213769D01*
X0131800Y0212523D02*
X0131800Y0208549D01*
X0131800Y0212523D01*
X0131800Y0212523D01*
X0131800Y0212170D02*
X0131800Y0212170D01*
X0131800Y0210572D02*
X0131800Y0210572D01*
X0131800Y0208973D02*
X0131800Y0208973D01*
X0136556Y0205776D02*
X0148590Y0205776D01*
X0156585Y0205776D02*
X0185628Y0205776D01*
X0185028Y0204178D02*
X0163738Y0204178D01*
X0165549Y0202579D02*
X0184701Y0202579D01*
X0184982Y0200981D02*
X0166143Y0200981D01*
X0166143Y0199382D02*
X0186043Y0199382D01*
X0184691Y0197784D02*
X0166143Y0197784D01*
X0166143Y0196185D02*
X0183093Y0196185D01*
X0181494Y0194587D02*
X0166143Y0194587D01*
X0165764Y0192988D02*
X0179896Y0192988D01*
X0178297Y0191390D02*
X0164564Y0191390D01*
X0159036Y0191390D02*
X0154564Y0191390D01*
X0155764Y0192988D02*
X0157836Y0192988D01*
X0157457Y0194587D02*
X0156143Y0194587D01*
X0156143Y0196185D02*
X0157457Y0196185D01*
X0157457Y0197784D02*
X0156143Y0197784D01*
X0156143Y0199382D02*
X0157376Y0199382D01*
X0158184Y0204178D02*
X0159862Y0204178D01*
X0177507Y0184996D02*
X0185374Y0184996D01*
X0185362Y0184984D02*
X0184701Y0183388D01*
X0184701Y0181660D01*
X0185362Y0180063D01*
X0186584Y0178842D01*
X0188180Y0178180D01*
X0195420Y0178180D01*
X0197016Y0178842D01*
X0198238Y0180063D01*
X0198899Y0181660D01*
X0198899Y0183388D01*
X0198238Y0184984D01*
X0197016Y0186206D01*
X0195420Y0186867D01*
X0188180Y0186867D01*
X0186584Y0186206D01*
X0185362Y0184984D01*
X0184705Y0183397D02*
X0175908Y0183397D01*
X0174310Y0181799D02*
X0184701Y0181799D01*
X0185305Y0180200D02*
X0172711Y0180200D01*
X0171113Y0178602D02*
X0187163Y0178602D01*
X0188180Y0176867D02*
X0186584Y0176206D01*
X0185362Y0174984D01*
X0184701Y0173388D01*
X0184701Y0171660D01*
X0185362Y0170063D01*
X0186584Y0168842D01*
X0188180Y0168180D01*
X0195420Y0168180D01*
X0197016Y0168842D01*
X0198238Y0170063D01*
X0198899Y0171660D01*
X0198899Y0173388D01*
X0198238Y0174984D01*
X0197016Y0176206D01*
X0195420Y0176867D01*
X0188180Y0176867D01*
X0185783Y0175405D02*
X0167916Y0175405D01*
X0169514Y0177003D02*
X0216513Y0177003D01*
X0216523Y0178602D02*
X0196437Y0178602D01*
X0198295Y0180200D02*
X0216716Y0180200D01*
X0215117Y0181799D02*
X0198899Y0181799D01*
X0198895Y0183397D02*
X0213519Y0183397D01*
X0211920Y0184996D02*
X0198226Y0184996D01*
X0196078Y0186594D02*
X0210322Y0186594D01*
X0208723Y0188193D02*
X0195450Y0188193D01*
X0197966Y0189791D02*
X0207124Y0189791D01*
X0205526Y0191390D02*
X0198787Y0191390D01*
X0198899Y0192988D02*
X0203927Y0192988D01*
X0202329Y0194587D02*
X0198403Y0194587D01*
X0197037Y0196185D02*
X0200730Y0196185D01*
X0199132Y0197784D02*
X0190295Y0197784D01*
X0185634Y0189791D02*
X0182302Y0189791D01*
X0180704Y0188193D02*
X0188150Y0188193D01*
X0187522Y0186594D02*
X0179105Y0186594D01*
X0183901Y0191390D02*
X0184813Y0191390D01*
X0184874Y0173806D02*
X0166317Y0173806D01*
X0164719Y0172208D02*
X0184701Y0172208D01*
X0185136Y0170609D02*
X0163120Y0170609D01*
X0161522Y0169010D02*
X0186415Y0169010D01*
X0185708Y0158011D02*
X0183692Y0157176D01*
X0182148Y0155632D01*
X0181313Y0153615D01*
X0181313Y0151432D01*
X0182148Y0149415D01*
X0183692Y0147872D01*
X0185708Y0147036D01*
X0187892Y0147036D01*
X0189908Y0147872D01*
X0191452Y0149415D01*
X0192287Y0151432D01*
X0192287Y0153615D01*
X0191452Y0155632D01*
X0189908Y0157176D01*
X0187892Y0158011D01*
X0185708Y0158011D01*
X0185250Y0157821D02*
X0150332Y0157821D01*
X0150862Y0156222D02*
X0182738Y0156222D01*
X0181730Y0154624D02*
X0151870Y0154624D01*
X0152287Y0153025D02*
X0181313Y0153025D01*
X0181315Y0151427D02*
X0152285Y0151427D01*
X0151623Y0149828D02*
X0181977Y0149828D01*
X0183333Y0148230D02*
X0150267Y0148230D01*
X0159825Y0146631D02*
X0216513Y0146631D01*
X0216513Y0148230D02*
X0190267Y0148230D01*
X0191623Y0149828D02*
X0217032Y0149828D01*
X0218226Y0151427D02*
X0192285Y0151427D01*
X0192287Y0153025D02*
X0218843Y0153025D01*
X0217278Y0154624D02*
X0191870Y0154624D01*
X0190862Y0156222D02*
X0216616Y0156222D01*
X0216513Y0157821D02*
X0188350Y0157821D01*
X0197185Y0169010D02*
X0216693Y0169010D01*
X0216513Y0167412D02*
X0159923Y0167412D01*
X0158325Y0165813D02*
X0216785Y0165813D01*
X0217631Y0164215D02*
X0156726Y0164215D01*
X0155128Y0162616D02*
X0219830Y0162616D01*
X0217817Y0161018D02*
X0153529Y0161018D01*
X0151931Y0159419D02*
X0216862Y0159419D01*
X0223770Y0162616D02*
X0229019Y0162616D01*
X0229019Y0161018D02*
X0225783Y0161018D01*
X0226738Y0159419D02*
X0229019Y0159419D01*
X0229019Y0157821D02*
X0227087Y0157821D01*
X0226984Y0156222D02*
X0229019Y0156222D01*
X0229019Y0154624D02*
X0226322Y0154624D01*
X0224757Y0153025D02*
X0229019Y0153025D01*
X0229019Y0151427D02*
X0225374Y0151427D01*
X0226568Y0149828D02*
X0229019Y0149828D01*
X0229019Y0148230D02*
X0227087Y0148230D01*
X0227087Y0146631D02*
X0229019Y0146631D01*
X0229019Y0145033D02*
X0226491Y0145033D01*
X0225188Y0143434D02*
X0229019Y0143434D01*
X0229019Y0141836D02*
X0224965Y0141836D01*
X0226399Y0140237D02*
X0229019Y0140237D01*
X0229019Y0138639D02*
X0227061Y0138639D01*
X0227087Y0137040D02*
X0229019Y0137040D01*
X0229019Y0135442D02*
X0226661Y0135442D01*
X0225597Y0133843D02*
X0229019Y0133843D01*
X0229019Y0132245D02*
X0222872Y0132245D01*
X0220728Y0132245D02*
X0174211Y0132245D01*
X0172613Y0133843D02*
X0218003Y0133843D01*
X0216939Y0135442D02*
X0171014Y0135442D01*
X0169416Y0137040D02*
X0216513Y0137040D01*
X0216539Y0138639D02*
X0167817Y0138639D01*
X0166219Y0140237D02*
X0217201Y0140237D01*
X0218635Y0141836D02*
X0164620Y0141836D01*
X0163022Y0143434D02*
X0218412Y0143434D01*
X0217109Y0145033D02*
X0161423Y0145033D01*
X0175810Y0130646D02*
X0229019Y0130646D01*
X0229019Y0129048D02*
X0177408Y0129048D01*
X0179007Y0127449D02*
X0229019Y0127449D01*
X0229019Y0125851D02*
X0180605Y0125851D01*
X0182204Y0124252D02*
X0185041Y0124252D01*
X0188559Y0124252D02*
X0229019Y0124252D01*
X0229019Y0122654D02*
X0190518Y0122654D01*
X0191143Y0121055D02*
X0229019Y0121055D01*
X0229019Y0119457D02*
X0191143Y0119457D01*
X0191143Y0117858D02*
X0229019Y0117858D01*
X0229019Y0116260D02*
X0191143Y0116260D01*
X0191143Y0114661D02*
X0229019Y0114661D01*
X0229019Y0113063D02*
X0190795Y0113063D01*
X0189639Y0111464D02*
X0229019Y0111464D01*
X0229019Y0109866D02*
X0170881Y0109866D01*
X0172479Y0111464D02*
X0173961Y0111464D01*
X0179639Y0111464D02*
X0183961Y0111464D01*
X0182805Y0113063D02*
X0180795Y0113063D01*
X0181143Y0114661D02*
X0182457Y0114661D01*
X0182457Y0116260D02*
X0181143Y0116260D01*
X0181143Y0117858D02*
X0182457Y0117858D01*
X0181396Y0119457D02*
X0181143Y0119457D01*
X0198464Y0170609D02*
X0217408Y0170609D01*
X0219291Y0172208D02*
X0198899Y0172208D01*
X0198726Y0173806D02*
X0218040Y0173806D01*
X0216955Y0175405D02*
X0197817Y0175405D01*
X0212728Y0189791D02*
X0217021Y0189791D01*
X0216553Y0188193D02*
X0214326Y0188193D01*
X0215925Y0186594D02*
X0216594Y0186594D01*
X0218189Y0191390D02*
X0211129Y0191390D01*
X0209531Y0192988D02*
X0219055Y0192988D01*
X0217398Y0194587D02*
X0207932Y0194587D01*
X0206334Y0196185D02*
X0216675Y0196185D01*
X0216513Y0197724D02*
X0221600Y0197724D01*
X0221600Y0197324D01*
X0222000Y0197324D01*
X0222000Y0197724D01*
X0227087Y0197724D01*
X0227087Y0197940D01*
X0226957Y0198762D01*
X0226700Y0199553D01*
X0226322Y0200295D01*
X0225833Y0200968D01*
X0225245Y0201557D01*
X0224571Y0202046D01*
X0223830Y0202424D01*
X0223535Y0202519D01*
X0224795Y0203041D01*
X0226282Y0204529D01*
X0227087Y0206472D01*
X0227087Y0208575D01*
X0226282Y0210519D01*
X0224795Y0212006D01*
X0222852Y0212811D01*
X0220748Y0212811D01*
X0218805Y0212006D01*
X0217318Y0210519D01*
X0216513Y0208575D01*
X0216513Y0206472D01*
X0217318Y0204529D01*
X0218805Y0203041D01*
X0220065Y0202519D01*
X0219770Y0202424D01*
X0219029Y0202046D01*
X0218355Y0201557D01*
X0217767Y0200968D01*
X0217278Y0200295D01*
X0216900Y0199553D01*
X0216643Y0198762D01*
X0216513Y0197940D01*
X0216513Y0197724D01*
X0216513Y0197784D02*
X0204735Y0197784D01*
X0203137Y0199382D02*
X0216844Y0199382D01*
X0217780Y0200981D02*
X0201538Y0200981D01*
X0199940Y0202579D02*
X0219920Y0202579D01*
X0217668Y0204178D02*
X0198572Y0204178D01*
X0197446Y0205776D02*
X0216801Y0205776D01*
X0216513Y0207375D02*
X0189632Y0207375D01*
X0191616Y0208973D02*
X0191984Y0208973D01*
X0191984Y0210572D02*
X0191616Y0210572D01*
X0191616Y0212170D02*
X0191984Y0212170D01*
X0191984Y0212708D02*
X0198899Y0212708D01*
X0198899Y0212865D01*
X0198792Y0213541D01*
X0198581Y0214191D01*
X0198271Y0214800D01*
X0197869Y0215353D01*
X0197385Y0215837D01*
X0196832Y0216238D01*
X0196223Y0216549D01*
X0195573Y0216760D01*
X0194898Y0216867D01*
X0191984Y0216867D01*
X0191984Y0212708D01*
X0191984Y0213769D02*
X0191616Y0213769D01*
X0191616Y0215367D02*
X0191984Y0215367D01*
X0186458Y0216966D02*
X0229019Y0216966D01*
X0229019Y0218564D02*
X0186458Y0218564D01*
X0186458Y0220163D02*
X0229019Y0220163D01*
X0229019Y0221761D02*
X0186458Y0221761D01*
X0186458Y0223360D02*
X0218486Y0223360D01*
X0218805Y0223041D02*
X0220748Y0222236D01*
X0222852Y0222236D01*
X0224795Y0223041D01*
X0226282Y0224529D01*
X0227087Y0226472D01*
X0227087Y0228575D01*
X0226282Y0230519D01*
X0224795Y0232006D01*
X0223546Y0232524D01*
X0224795Y0233041D01*
X0226282Y0234529D01*
X0227087Y0236472D01*
X0227087Y0238575D01*
X0226282Y0240519D01*
X0224795Y0242006D01*
X0223546Y0242524D01*
X0224795Y0243041D01*
X0226282Y0244529D01*
X0227087Y0246472D01*
X0227087Y0248575D01*
X0226282Y0250519D01*
X0224795Y0252006D01*
X0223546Y0252524D01*
X0224795Y0253041D01*
X0226282Y0254529D01*
X0227087Y0256472D01*
X0227087Y0258575D01*
X0226282Y0260519D01*
X0224795Y0262006D01*
X0223546Y0262524D01*
X0224795Y0263041D01*
X0226282Y0264529D01*
X0227087Y0266472D01*
X0227087Y0268575D01*
X0226282Y0270519D01*
X0224795Y0272006D01*
X0223546Y0272524D01*
X0224795Y0273041D01*
X0226282Y0274529D01*
X0227087Y0276472D01*
X0227087Y0278575D01*
X0226282Y0280519D01*
X0224795Y0282006D01*
X0222852Y0282811D01*
X0220748Y0282811D01*
X0218805Y0282006D01*
X0217318Y0280519D01*
X0216513Y0278575D01*
X0216513Y0276472D01*
X0217318Y0274529D01*
X0218805Y0273041D01*
X0220054Y0272524D01*
X0218805Y0272006D01*
X0217318Y0270519D01*
X0216513Y0268575D01*
X0216513Y0266472D01*
X0217318Y0264529D01*
X0218805Y0263041D01*
X0220054Y0262524D01*
X0218805Y0262006D01*
X0217318Y0260519D01*
X0216513Y0258575D01*
X0216513Y0256472D01*
X0217318Y0254529D01*
X0218805Y0253041D01*
X0220054Y0252524D01*
X0218805Y0252006D01*
X0217318Y0250519D01*
X0216513Y0248575D01*
X0216513Y0246472D01*
X0217318Y0244529D01*
X0218805Y0243041D01*
X0220054Y0242524D01*
X0218805Y0242006D01*
X0217318Y0240519D01*
X0216513Y0238575D01*
X0216513Y0236472D01*
X0217318Y0234529D01*
X0218805Y0233041D01*
X0220054Y0232524D01*
X0218805Y0232006D01*
X0217318Y0230519D01*
X0216513Y0228575D01*
X0216513Y0226472D01*
X0217318Y0224529D01*
X0218805Y0223041D01*
X0217140Y0224958D02*
X0186458Y0224958D01*
X0186458Y0226557D02*
X0216513Y0226557D01*
X0216513Y0228155D02*
X0186458Y0228155D01*
X0186458Y0229754D02*
X0217001Y0229754D01*
X0218151Y0231352D02*
X0186458Y0231352D01*
X0186458Y0232951D02*
X0219023Y0232951D01*
X0217309Y0234549D02*
X0197724Y0234549D01*
X0198687Y0236148D02*
X0216647Y0236148D01*
X0216513Y0237746D02*
X0198899Y0237746D01*
X0198503Y0239345D02*
X0216831Y0239345D01*
X0217742Y0240943D02*
X0197278Y0240943D01*
X0197315Y0244141D02*
X0217706Y0244141D01*
X0216816Y0245739D02*
X0198518Y0245739D01*
X0198899Y0247338D02*
X0216513Y0247338D01*
X0216662Y0248936D02*
X0198672Y0248936D01*
X0197687Y0250535D02*
X0217333Y0250535D01*
X0219112Y0252133D02*
X0186458Y0252133D01*
X0186458Y0253732D02*
X0186849Y0253732D01*
X0186458Y0261724D02*
X0187835Y0261724D01*
X0187837Y0263323D02*
X0186458Y0263323D01*
X0188180Y0273180D02*
X0186584Y0273842D01*
X0185362Y0275063D01*
X0184701Y0276660D01*
X0184701Y0278388D01*
X0185362Y0279984D01*
X0186584Y0281206D01*
X0188180Y0281867D01*
X0195420Y0281867D01*
X0197016Y0281206D01*
X0198238Y0279984D01*
X0198899Y0278388D01*
X0198899Y0276660D01*
X0198238Y0275063D01*
X0197016Y0273842D01*
X0195420Y0273180D01*
X0188180Y0273180D01*
X0185913Y0274512D02*
X0036266Y0274512D01*
X0036938Y0276111D02*
X0184928Y0276111D01*
X0184701Y0277709D02*
X0037087Y0277709D01*
X0036784Y0279308D02*
X0185082Y0279308D01*
X0186284Y0280906D02*
X0035895Y0280906D01*
X0033591Y0282505D02*
X0220009Y0282505D01*
X0217705Y0280906D02*
X0197316Y0280906D01*
X0198518Y0279308D02*
X0216816Y0279308D01*
X0216513Y0277709D02*
X0198899Y0277709D01*
X0198672Y0276111D02*
X0216662Y0276111D01*
X0217334Y0274512D02*
X0197687Y0274512D01*
X0196752Y0271315D02*
X0218114Y0271315D01*
X0219113Y0272914D02*
X0034487Y0272914D01*
X0029113Y0272914D02*
X0024581Y0272914D01*
X0024581Y0274512D02*
X0027334Y0274512D01*
X0026662Y0276111D02*
X0024581Y0276111D01*
X0024581Y0277709D02*
X0026513Y0277709D01*
X0026816Y0279308D02*
X0024581Y0279308D01*
X0024581Y0280906D02*
X0027705Y0280906D01*
X0025714Y0282505D02*
X0030009Y0282505D01*
X0027313Y0284103D02*
X0229019Y0284103D01*
X0229019Y0282505D02*
X0223591Y0282505D01*
X0225895Y0280906D02*
X0229019Y0280906D01*
X0229019Y0279308D02*
X0226784Y0279308D01*
X0227087Y0277709D02*
X0229019Y0277709D01*
X0229019Y0276111D02*
X0226938Y0276111D01*
X0226266Y0274512D02*
X0229019Y0274512D01*
X0229019Y0272914D02*
X0224487Y0272914D01*
X0225486Y0271315D02*
X0229019Y0271315D01*
X0229019Y0269717D02*
X0226615Y0269717D01*
X0227087Y0268118D02*
X0229019Y0268118D01*
X0229019Y0266520D02*
X0227087Y0266520D01*
X0226445Y0264921D02*
X0229019Y0264921D01*
X0229019Y0263323D02*
X0225077Y0263323D01*
X0225077Y0261724D02*
X0229019Y0261724D01*
X0229019Y0260126D02*
X0226445Y0260126D01*
X0227087Y0258527D02*
X0229019Y0258527D01*
X0229019Y0256929D02*
X0227087Y0256929D01*
X0226614Y0255330D02*
X0229019Y0255330D01*
X0229019Y0253732D02*
X0225485Y0253732D01*
X0224488Y0252133D02*
X0229019Y0252133D01*
X0229019Y0250535D02*
X0226267Y0250535D01*
X0226938Y0248936D02*
X0229019Y0248936D01*
X0229019Y0247338D02*
X0227087Y0247338D01*
X0226784Y0245739D02*
X0229019Y0245739D01*
X0229019Y0244141D02*
X0225894Y0244141D01*
X0223590Y0242542D02*
X0229019Y0242542D01*
X0229019Y0240943D02*
X0225858Y0240943D01*
X0226769Y0239345D02*
X0229019Y0239345D01*
X0229019Y0237746D02*
X0227087Y0237746D01*
X0226953Y0236148D02*
X0229019Y0236148D01*
X0229019Y0234549D02*
X0226291Y0234549D01*
X0224577Y0232951D02*
X0229019Y0232951D01*
X0229019Y0231352D02*
X0225449Y0231352D01*
X0226599Y0229754D02*
X0229019Y0229754D01*
X0229019Y0228155D02*
X0227087Y0228155D01*
X0227087Y0226557D02*
X0229019Y0226557D01*
X0229019Y0224958D02*
X0226460Y0224958D01*
X0225114Y0223360D02*
X0229019Y0223360D01*
X0229019Y0215367D02*
X0197855Y0215367D01*
X0198718Y0213769D02*
X0229019Y0213769D01*
X0229019Y0212170D02*
X0224399Y0212170D01*
X0226229Y0210572D02*
X0229019Y0210572D01*
X0229019Y0208973D02*
X0226923Y0208973D01*
X0227087Y0207375D02*
X0229019Y0207375D01*
X0229019Y0205776D02*
X0226799Y0205776D01*
X0225932Y0204178D02*
X0229019Y0204178D01*
X0229019Y0202579D02*
X0223680Y0202579D01*
X0225820Y0200981D02*
X0229019Y0200981D01*
X0229019Y0199382D02*
X0226756Y0199382D01*
X0227087Y0197784D02*
X0229019Y0197784D01*
X0229019Y0196185D02*
X0226925Y0196185D01*
X0226957Y0196285D02*
X0227087Y0197107D01*
X0227087Y0197324D01*
X0222000Y0197324D01*
X0222000Y0192236D01*
X0222000Y0187724D01*
X0227087Y0187724D01*
X0227087Y0187940D01*
X0226957Y0188762D01*
X0226700Y0189553D01*
X0226322Y0190295D01*
X0225833Y0190968D01*
X0225245Y0191557D01*
X0224571Y0192046D01*
X0223830Y0192424D01*
X0223522Y0192524D01*
X0223830Y0192624D01*
X0224571Y0193001D01*
X0225245Y0193491D01*
X0225833Y0194079D01*
X0226322Y0194752D01*
X0226700Y0195494D01*
X0226957Y0196285D01*
X0226202Y0194587D02*
X0229019Y0194587D01*
X0229019Y0192988D02*
X0224545Y0192988D01*
X0225411Y0191390D02*
X0229019Y0191390D01*
X0229019Y0189791D02*
X0226579Y0189791D01*
X0227047Y0188193D02*
X0229019Y0188193D01*
X0229019Y0186594D02*
X0227006Y0186594D01*
X0226446Y0184996D02*
X0229019Y0184996D01*
X0229019Y0183397D02*
X0225116Y0183397D01*
X0225003Y0181799D02*
X0229019Y0181799D01*
X0229019Y0180200D02*
X0226414Y0180200D01*
X0227077Y0178602D02*
X0229019Y0178602D01*
X0229019Y0177003D02*
X0227087Y0177003D01*
X0226645Y0175405D02*
X0229019Y0175405D01*
X0229019Y0173806D02*
X0225560Y0173806D01*
X0224309Y0172208D02*
X0229019Y0172208D01*
X0229019Y0170609D02*
X0226192Y0170609D01*
X0226907Y0169010D02*
X0229019Y0169010D01*
X0229019Y0167412D02*
X0227087Y0167412D01*
X0226815Y0165813D02*
X0229019Y0165813D01*
X0229019Y0164215D02*
X0225969Y0164215D01*
X0222000Y0188193D02*
X0221600Y0188193D01*
X0221600Y0189791D02*
X0222000Y0189791D01*
X0222000Y0191390D02*
X0221600Y0191390D01*
X0221600Y0192988D02*
X0222000Y0192988D01*
X0222000Y0194587D02*
X0221600Y0194587D01*
X0221600Y0196185D02*
X0222000Y0196185D01*
X0216677Y0208973D02*
X0197059Y0208973D01*
X0198436Y0210572D02*
X0217371Y0210572D01*
X0219201Y0212170D02*
X0198897Y0212170D01*
X0182496Y0239345D02*
X0136630Y0239345D01*
X0137835Y0240943D02*
X0182496Y0240943D01*
X0182496Y0242542D02*
X0138162Y0242542D01*
X0137820Y0244141D02*
X0182496Y0244141D01*
X0182496Y0245739D02*
X0136593Y0245739D01*
X0186458Y0242542D02*
X0220010Y0242542D01*
X0218115Y0253732D02*
X0196751Y0253732D01*
X0198348Y0255330D02*
X0216986Y0255330D01*
X0216513Y0256929D02*
X0198899Y0256929D01*
X0198841Y0258527D02*
X0216513Y0258527D01*
X0217155Y0260126D02*
X0198096Y0260126D01*
X0195765Y0261724D02*
X0218523Y0261724D01*
X0218523Y0263323D02*
X0195763Y0263323D01*
X0198096Y0264921D02*
X0217155Y0264921D01*
X0216513Y0266520D02*
X0198841Y0266520D01*
X0198899Y0268118D02*
X0216513Y0268118D01*
X0216985Y0269717D02*
X0198349Y0269717D01*
X0214893Y0290497D02*
X0078707Y0290497D01*
X0077108Y0288899D02*
X0216492Y0288899D01*
X0218090Y0287300D02*
X0075510Y0287300D01*
X0073911Y0285702D02*
X0219689Y0285702D01*
X0213295Y0292096D02*
X0080305Y0292096D01*
X0081904Y0293694D02*
X0211696Y0293694D01*
X0229019Y0108267D02*
X0035021Y0108267D01*
X0035133Y0106669D02*
X0229019Y0106669D01*
X0229019Y0105070D02*
X0036468Y0105070D01*
X0037087Y0103472D02*
X0229019Y0103472D01*
X0229019Y0101873D02*
X0037087Y0101873D01*
X0036591Y0100274D02*
X0229019Y0100274D01*
X0229019Y0098676D02*
X0035430Y0098676D01*
X0035764Y0169010D02*
X0039716Y0169010D01*
X0038118Y0170609D02*
X0036730Y0170609D01*
X0028115Y0253732D02*
X0024581Y0253732D01*
X0024581Y0255330D02*
X0026986Y0255330D01*
X0026513Y0256929D02*
X0024581Y0256929D01*
X0024581Y0258527D02*
X0026513Y0258527D01*
X0027155Y0260126D02*
X0024581Y0260126D01*
X0024581Y0261724D02*
X0028523Y0261724D01*
X0028523Y0263323D02*
X0024581Y0263323D01*
X0024581Y0264921D02*
X0027155Y0264921D01*
X0026513Y0266520D02*
X0024581Y0266520D01*
X0024581Y0268118D02*
X0026513Y0268118D01*
X0026985Y0269717D02*
X0024581Y0269717D01*
X0024581Y0271315D02*
X0028114Y0271315D01*
D16*
X0058493Y0189256D03*
M02*
